MulatAwash-Regular.ufo
<glyph name="quotedbl" format="2">
  <advance width="318"/>
  <unicode hex="0022"/>
  <note>
quotedbl
</note>
  <outline>
    <contour>
      <point x="302" y="497" type="line"/>
      <point x="317" y="497" type="line"/>
      <point x="319" y="503"/>
      <point x="367" y="679"/>
      <point x="367" y="738" type="curve" smooth="yes"/>
      <point x="367" y="766"/>
      <point x="356" y="780"/>
      <point x="333" y="780" type="curve" smooth="yes"/>
      <point x="306" y="780"/>
      <point x="289" y="761"/>
      <point x="291" y="734" type="curve" smooth="yes"/>
    </contour>
    <contour>
      <point x="148" y="497" type="line"/>
      <point x="162" y="497" type="line"/>
      <point x="195" y="621"/>
      <point x="211" y="698"/>
      <point x="211" y="731" type="curve" smooth="yes"/>
      <point x="211" y="764"/>
      <point x="201" y="780"/>
      <point x="179" y="780" type="curve" smooth="yes"/>
      <point x="154" y="780"/>
      <point x="134" y="757"/>
      <point x="136" y="732" type="curve" smooth="yes"/>
    </contour>
  </outline>
</glyph>
<glyph name="quotesingle" format="2">
  <advance width="158"/>
  <unicode hex="0027"/>
  <note>
quotesingle
</note>
  <outline>
    <contour>
      <point x="59" y="430" type="curve" smooth="yes"/>
      <point x="63" y="430"/>
      <point x="66" y="430"/>
      <point x="69" y="432" type="curve" smooth="yes"/>
      <point x="143" y="456"/>
      <point x="212" y="513"/>
      <point x="212" y="598" type="curve" smooth="yes"/>
      <point x="212" y="639"/>
      <point x="191" y="676"/>
      <point x="156" y="676" type="curve" smooth="yes"/>
      <point x="125" y="676"/>
      <point x="83" y="656"/>
      <point x="83" y="601" type="curve"/>
      <point x="90" y="546"/>
      <point x="170" y="550"/>
      <point x="175" y="570" type="curve"/>
      <point x="166" y="510"/>
      <point x="122" y="468"/>
      <point x="64" y="447" type="curve" smooth="yes"/>
      <point x="57" y="444"/>
      <point x="53" y="441"/>
      <point x="53" y="435" type="curve" smooth="yes"/>
      <point x="53" y="432"/>
      <point x="55" y="430"/>
    </contour>
  </outline>
</glyph>
<glyph name="parenleft" format="2">
  <advance width="549"/>
  <unicode hex="0028"/>
  <note>
parenleft
</note>
  <outline>
    <contour>
      <point x="349" y="-82" type="curve" smooth="yes"/>
      <point x="392" y="-82"/>
      <point x="413" y="-75"/>
      <point x="412" y="-62" type="curve" smooth="yes"/>
      <point x="411" y="-55"/>
      <point x="405" y="-53"/>
      <point x="394" y="-54" type="curve" smooth="yes"/>
      <point x="383" y="-55"/>
      <point x="373" y="-55"/>
      <point x="366" y="-55" type="curve" smooth="yes"/>
      <point x="333" y="-55"/>
      <point x="304" y="-46"/>
      <point x="280" y="-26" type="curve" smooth="yes"/>
      <point x="229" y="17"/>
      <point x="204" y="90"/>
      <point x="204" y="193" type="curve" smooth="yes"/>
      <point x="204" y="330"/>
      <point x="249" y="465"/>
      <point x="340" y="599" type="curve" smooth="yes"/>
      <point x="465" y="779"/>
      <point x="631" y="866"/>
      <point x="700" y="871" type="curve"/>
      <point x="717" y="877"/>
      <point x="726" y="883"/>
      <point x="728" y="891" type="curve" smooth="yes"/>
      <point x="728" y="896"/>
      <point x="725" y="899"/>
      <point x="719" y="899" type="curve" smooth="yes"/>
      <point x="713" y="899"/>
      <point x="707" y="898"/>
      <point x="700" y="896" type="curve" smooth="yes"/>
      <point x="569" y="863"/>
      <point x="434" y="776"/>
      <point x="341" y="678" type="curve" smooth="yes"/>
      <point x="247" y="579"/>
      <point x="177" y="469"/>
      <point x="153" y="379" type="curve" smooth="yes"/>
      <point x="141" y="323"/>
      <point x="134" y="275"/>
      <point x="134" y="235" type="curve" smooth="yes"/>
      <point x="134" y="195"/>
      <point x="137" y="161"/>
      <point x="143" y="133" type="curve" smooth="yes"/>
      <point x="172" y="-8"/>
      <point x="265" y="-82"/>
    </contour>
  </outline>
</glyph>
<glyph name="parenright" format="2">
  <advance width="728"/>
  <unicode hex="0029"/>
  <note>
parenright
</note>
  <outline>
    <contour>
      <point x="193" y="-95" type="curve" smooth="yes"/>
      <point x="199" y="-95"/>
      <point x="205" y="-94"/>
      <point x="212" y="-92" type="curve" smooth="yes"/>
      <point x="387" y="-47"/>
      <point x="560" y="90"/>
      <point x="660" y="230" type="curve" smooth="yes"/>
      <point x="709" y="299"/>
      <point x="743" y="364"/>
      <point x="759" y="425" type="curve" smooth="yes"/>
      <point x="771" y="481"/>
      <point x="778" y="529"/>
      <point x="778" y="569" type="curve" smooth="yes"/>
      <point x="778" y="609"/>
      <point x="775" y="643"/>
      <point x="769" y="671" type="curve" smooth="yes"/>
      <point x="740" y="812"/>
      <point x="647" y="886"/>
      <point x="563" y="886" type="curve" smooth="yes"/>
      <point x="520" y="886"/>
      <point x="499" y="879"/>
      <point x="500" y="866" type="curve" smooth="yes"/>
      <point x="502" y="859"/>
      <point x="508" y="857"/>
      <point x="519" y="858" type="curve" smooth="yes"/>
      <point x="530" y="859"/>
      <point x="539" y="859"/>
      <point x="545" y="859" type="curve" smooth="yes"/>
      <point x="579" y="859"/>
      <point x="607" y="849"/>
      <point x="632" y="828" type="curve" smooth="yes"/>
      <point x="683" y="786"/>
      <point x="708" y="714"/>
      <point x="708" y="611" type="curve" smooth="yes"/>
      <point x="708" y="459"/>
      <point x="649" y="306"/>
      <point x="533" y="150" type="curve" smooth="yes"/>
      <point x="459" y="53"/>
      <point x="342" y="-34"/>
      <point x="213" y="-67" type="curve" smooth="yes"/>
      <point x="194" y="-72"/>
      <point x="184" y="-79"/>
      <point x="184" y="-87" type="curve" smooth="yes"/>
      <point x="184" y="-92"/>
      <point x="187" y="-95"/>
    </contour>
  </outline>
</glyph>
<glyph name="plus" format="2">
  <advance width="458"/>
  <unicode hex="002B"/>
  <note>
plus
</note>
  <outline>
    <contour>
      <point x="209" y="56" type="curve" smooth="yes"/>
      <point x="213" y="56"/>
      <point x="217" y="56"/>
      <point x="222" y="57" type="curve" smooth="yes"/>
      <point x="240" y="61"/>
      <point x="249" y="67"/>
      <point x="251" y="76" type="curve" smooth="yes"/>
      <point x="252" y="87"/>
      <point x="257" y="123"/>
      <point x="268" y="182" type="curve" smooth="yes"/>
      <point x="279" y="241" type="line"/>
      <point x="348" y="246"/>
      <point x="400" y="248"/>
      <point x="438" y="248" type="curve" smooth="yes"/>
      <point x="455" y="248"/>
      <point x="464" y="253"/>
      <point x="464" y="263" type="curve" smooth="yes"/>
      <point x="464" y="270"/>
      <point x="460" y="280"/>
      <point x="442" y="280" type="curve" smooth="yes"/>
      <point x="363" y="280" type="line" smooth="yes"/>
      <point x="327" y="280"/>
      <point x="301" y="280"/>
      <point x="286" y="282" type="curve"/>
      <point x="306" y="386"/>
      <point x="318" y="445"/>
      <point x="321" y="459" type="curve" smooth="yes"/>
      <point x="325" y="474"/>
      <point x="322" y="481"/>
      <point x="313" y="481" type="curve" smooth="yes"/>
      <point x="301" y="481"/>
      <point x="292" y="470"/>
      <point x="286" y="448" type="curve" smooth="yes"/>
      <point x="258" y="333" type="line"/>
      <point x="246" y="282" type="line"/>
      <point x="80" y="285" type="line"/>
      <point x="64" y="283"/>
      <point x="54" y="271"/>
      <point x="52" y="251" type="curve" smooth="yes"/>
      <point x="52" y="235"/>
      <point x="56" y="227"/>
      <point x="65" y="227" type="curve" smooth="yes"/>
      <point x="234" y="239" type="line"/>
      <point x="206" y="131"/>
      <point x="192" y="75"/>
      <point x="192" y="71" type="curve" smooth="yes"/>
      <point x="192" y="61"/>
      <point x="198" y="56"/>
    </contour>
  </outline>
</glyph>
<glyph name="one" format="2">
  <advance width="378"/>
  <unicode hex="0031"/>
  <note>
one
</note>
  <outline>
    <contour>
      <point x="35" y="0" type="line"/>
      <point x="73" y="3"/>
      <point x="96" y="6"/>
      <point x="100" y="8" type="curve"/>
      <point x="465" y="694" type="line"/>
      <point x="398" y="697" type="line" smooth="yes"/>
      <point x="369" y="697"/>
      <point x="342" y="672"/>
      <point x="175" y="559" type="curve" smooth="yes"/>
      <point x="143" y="537"/>
      <point x="161" y="536"/>
      <point x="166" y="537" type="curve"/>
      <point x="180.159" y="537"/>
      <point x="287.522" y="582.566"/>
      <point x="364.915" y="621.443" type="curve"/>
      <point x="40" y="9" type="line"/>
    </contour>
  </outline>
</glyph>
<glyph name="eight" format="2">
  <advance width="420"/>
  <unicode hex="0038"/>
  <note>
eight
</note>
  <outline>
    <contour>
      <point x="106" y="-6" type="curve" smooth="yes"/>
      <point x="224" y="-6"/>
      <point x="346" y="77"/>
      <point x="348" y="192" type="curve" smooth="yes"/>
      <point x="349" y="249"/>
      <point x="322" y="315"/>
      <point x="306" y="349" type="curve"/>
      <point x="349" y="385"/>
      <point x="405" y="423"/>
      <point x="440" y="461" type="curve" smooth="yes"/>
      <point x="483" y="510"/>
      <point x="506" y="541"/>
      <point x="507" y="613" type="curve" smooth="yes"/>
      <point x="508" y="666"/>
      <point x="460" y="700"/>
      <point x="396" y="700" type="curve" smooth="yes"/>
      <point x="292" y="700"/>
      <point x="197" y="609"/>
      <point x="194" y="505" type="curve" smooth="yes"/>
      <point x="193" y="471"/>
      <point x="209" y="430"/>
      <point x="223" y="399" type="curve"/>
      <point x="174" y="363"/>
      <point x="115" y="330"/>
      <point x="63" y="281" type="curve" smooth="yes"/>
      <point x="2" y="224"/>
      <point x="-31" y="166"/>
      <point x="-31" y="103" type="curve" smooth="yes"/>
      <point x="-31" y="40"/>
      <point x="31" y="-6"/>
    </contour>
    <contour>
      <point x="108" y="19" type="curve" smooth="yes"/>
      <point x="54" y="19"/>
      <point x="18" y="53"/>
      <point x="18" y="107" type="curve" smooth="yes"/>
      <point x="18" y="196"/>
      <point x="111" y="264"/>
      <point x="241" y="360" type="curve"/>
      <point x="275" y="279"/>
      <point x="290" y="241"/>
      <point x="288" y="196" type="curve" smooth="yes"/>
      <point x="284" y="106"/>
      <point x="196" y="19"/>
    </contour>
    <contour>
      <point x="290" y="388" type="curve"/>
      <point x="250" y="468"/>
      <point x="252" y="471"/>
      <point x="254" y="505" type="curve" smooth="yes"/>
      <point x="258" y="573"/>
      <point x="326" y="675"/>
      <point x="396" y="676" type="curve" smooth="yes"/>
      <point x="438" y="677"/>
      <point x="463" y="650"/>
      <point x="463" y="609" type="curve" smooth="yes"/>
      <point x="463" y="529"/>
      <point x="367" y="452"/>
    </contour>
  </outline>
</glyph>
<glyph name="semicolon" format="2">
  <advance width="415"/>
  <unicode hex="003B"/>
  <note>
semicolon
</note>
  <outline>
    <contour>
      <point x="124" y="-106" type="curve" smooth="yes"/>
      <point x="198" y="-81"/>
      <point x="267" y="-26"/>
      <point x="267" y="60" type="curve" smooth="yes"/>
      <point x="267" y="102"/>
      <point x="246" y="137"/>
      <point x="211" y="137" type="curve" smooth="yes"/>
      <point x="128" y="137"/>
      <point x="114" y="20"/>
      <point x="186" y="20" type="curve" smooth="yes"/>
      <point x="201" y="20"/>
      <point x="215" y="24"/>
      <point x="230" y="34" type="curve"/>
      <point x="222" y="-27"/>
      <point x="176" y="-72"/>
      <point x="119" y="-91" type="curve" smooth="yes"/>
      <point x="107" y="-96"/>
      <point x="99" y="-116"/>
    </contour>
    <contour>
      <point x="345" y="340" type="curve" smooth="yes"/>
      <point x="373" y="340"/>
      <point x="415" y="361"/>
      <point x="415" y="415" type="curve" smooth="yes"/>
      <point x="415" y="430"/>
      <point x="397" y="457"/>
      <point x="365" y="457" type="curve" smooth="yes"/>
      <point x="332" y="457"/>
      <point x="300" y="430"/>
      <point x="296" y="398" type="curve" smooth="yes"/>
      <point x="291" y="365"/>
      <point x="312" y="340"/>
    </contour>
  </outline>
</glyph>
<glyph name="K" format="2">
  <advance width="1517"/>
  <unicode hex="004B"/>
  <note>
K
</note>
  <outline>
    <contour>
      <point x="1349" y="-142" type="curve" smooth="yes"/>
      <point x="1394" y="-113"/>
      <point x="1425" y="-81"/>
      <point x="1443" y="-44" type="curve" smooth="yes"/>
      <point x="1450" y="-29"/>
      <point x="1451" y="-22"/>
      <point x="1445" y="-22" type="curve" smooth="yes"/>
      <point x="1439" y="-22"/>
      <point x="1434" y="-27"/>
      <point x="1430" y="-36" type="curve" smooth="yes"/>
      <point x="1395" y="-104"/>
      <point x="1308" y="-141"/>
      <point x="1223" y="-141" type="curve" smooth="yes"/>
      <point x="1149" y="-141"/>
      <point x="1089" y="-89"/>
      <point x="1044" y="15" type="curve" smooth="yes"/>
      <point x="1013" y="86"/>
      <point x="987" y="186"/>
      <point x="984" y="215" type="curve" smooth="yes"/>
      <point x="983" y="227"/>
      <point x="982" y="239"/>
      <point x="982" y="247" type="curve"/>
      <point x="1170" y="310"/>
      <point x="1499" y="564"/>
      <point x="1651" y="816" type="curve" smooth="yes"/>
      <point x="1664" y="838"/>
      <point x="1653" y="853"/>
      <point x="1648" y="848" type="curve"/>
      <point x="1642" y="848"/>
      <point x="1635" y="842"/>
      <point x="1626" y="829" type="curve" smooth="yes"/>
      <point x="1529" y="681"/>
      <point x="1363" y="524"/>
      <point x="1225" y="432" type="curve" smooth="yes"/>
      <point x="1098" y="346"/>
      <point x="982" y="280"/>
      <point x="929" y="280" type="curve" smooth="yes"/>
      <point x="926" y="280" type="line"/>
      <point x="904" y="272"/>
      <point x="918" y="207"/>
      <point x="928" y="152" type="curve" smooth="yes"/>
      <point x="953" y="23"/>
      <point x="1003" y="-72"/>
      <point x="1076" y="-132" type="curve" smooth="yes"/>
      <point x="1157" y="-199"/>
      <point x="1243" y="-202"/>
    </contour>
    <component base="_part.curvy.left" xOffset="-1372"/>
  </outline>
</glyph>
<glyph name="T" format="2">
  <advance width="1130"/>
  <unicode hex="0054"/>
  <note>
T
</note>
  <outline>
    <contour>
      <point x="384" y="-94" type="curve" smooth="yes"/>
      <point x="487" y="-94"/>
      <point x="577" y="-73"/>
      <point x="653" y="-32" type="curve" smooth="yes"/>
      <point x="769" y="32"/>
      <point x="842" y="156"/>
      <point x="898" y="324" type="curve" smooth="yes"/>
      <point x="935" y="448"/>
      <point x="978" y="547"/>
      <point x="1025" y="622" type="curve"/>
      <point x="1095" y="592"/>
      <point x="1179" y="571"/>
      <point x="1277" y="558" type="curve" smooth="yes"/>
      <point x="1323" y="551"/>
      <point x="1390" y="564"/>
      <point x="1390" y="607" type="curve" smooth="yes"/>
      <point x="1390" y="623"/>
      <point x="1387" y="631"/>
      <point x="1380" y="631" type="curve" smooth="yes"/>
      <point x="1373" y="631"/>
      <point x="1369" y="626"/>
      <point x="1369" y="616" type="curve" smooth="yes"/>
      <point x="1369" y="596"/>
      <point x="1348" y="586"/>
      <point x="1307" y="586" type="curve" smooth="yes"/>
      <point x="1266" y="586"/>
      <point x="1165" y="603"/>
      <point x="1040" y="643" type="curve"/>
      <point x="1052" y="658"/>
      <point x="1083" y="687"/>
      <point x="1092" y="683" type="curve" smooth="yes"/>
      <point x="1097" y="681"/>
      <point x="1102" y="681"/>
      <point x="1105" y="682" type="curve" smooth="yes"/>
      <point x="1119" y="687"/>
      <point x="1115" y="720"/>
      <point x="1085" y="712" type="curve" smooth="yes"/>
      <point x="1070" y="708"/>
      <point x="1045" y="691"/>
      <point x="1012" y="651" type="curve"/>
      <point x="882" y="696"/>
      <point x="770" y="740"/>
      <point x="633" y="740" type="curve" smooth="yes"/>
      <point x="555" y="740"/>
      <point x="433" y="717"/>
      <point x="365" y="612" type="curve" smooth="yes"/>
      <point x="340" y="574"/>
      <point x="328" y="535"/>
      <point x="328" y="495" type="curve" smooth="yes"/>
      <point x="328" y="440"/>
      <point x="351" y="364"/>
      <point x="439" y="333" type="curve" smooth="yes"/>
      <point x="478" y="319"/>
      <point x="526" y="316"/>
      <point x="581" y="348" type="curve" smooth="yes"/>
      <point x="627" y="374"/>
      <point x="653" y="413"/>
      <point x="660" y="465" type="curve"/>
      <point x="660" y="478"/>
      <point x="651" y="482"/>
      <point x="640" y="473" type="curve"/>
      <point x="640" y="471" type="line" smooth="yes"/>
      <point x="645" y="438"/>
      <point x="598" y="374"/>
      <point x="542" y="359" type="curve" smooth="yes"/>
      <point x="508" y="349"/>
      <point x="483" y="349"/>
      <point x="449" y="358" type="curve" smooth="yes"/>
      <point x="347" y="390"/>
      <point x="359" y="517"/>
      <point x="449" y="603" type="curve" smooth="yes"/>
      <point x="508" y="660"/>
      <point x="584" y="688"/>
      <point x="678" y="688" type="curve" smooth="yes"/>
      <point x="772" y="688"/>
      <point x="878" y="669"/>
      <point x="996" y="632" type="curve"/>
      <point x="987" y="619"/>
      <point x="965" y="576"/>
      <point x="932" y="503" type="curve" smooth="yes"/>
      <point x="835" y="290"/>
      <point x="758" y="153"/>
      <point x="702" y="92" type="curve" smooth="yes"/>
      <point x="613" y="-5"/>
      <point x="500" y="-55"/>
      <point x="362" y="-58" type="curve" smooth="yes"/>
      <point x="357" y="-58" type="line" smooth="yes"/>
      <point x="281" y="-58"/>
      <point x="201" y="-31"/>
      <point x="140" y="20" type="curve" smooth="yes"/>
      <point x="83" y="65"/>
      <point x="54" y="130"/>
      <point x="54" y="214" type="curve" smooth="yes"/>
      <point x="54" y="251"/>
      <point x="63" y="284"/>
      <point x="80" y="313" type="curve" smooth="yes"/>
      <point x="109" y="363"/>
      <point x="135" y="364"/>
      <point x="162" y="392" type="curve"/>
      <point x="163" y="403"/>
      <point x="158" y="409"/>
      <point x="146" y="409" type="curve" smooth="yes"/>
      <point x="139" y="409"/>
      <point x="128" y="405"/>
      <point x="113" y="396" type="curve" smooth="yes"/>
      <point x="41" y="353"/>
      <point x="20" y="251"/>
      <point x="20" y="207" type="curve" smooth="yes"/>
      <point x="20" y="184"/>
      <point x="21" y="167"/>
      <point x="22" y="156" type="curve" smooth="yes"/>
      <point x="34" y="71"/>
      <point x="76" y="9"/>
      <point x="148" y="-32" type="curve" smooth="yes"/>
      <point x="221" y="-73"/>
      <point x="300" y="-94"/>
    </contour>
  </outline>
</glyph>
<glyph name="Z" format="2">
  <advance width="945"/>
  <unicode hex="005A"/>
  <note>
Z
</note>
  <outline>
    <contour>
      <point x="771" y="-158" type="curve" smooth="yes"/>
      <point x="815" y="-158"/>
      <point x="854" y="-153"/>
      <point x="889" y="-140" type="curve" smooth="yes"/>
      <point x="967" y="-111"/>
      <point x="998" y="-50"/>
      <point x="1007" y="-17" type="curve" smooth="yes"/>
      <point x="1009" y="-7"/>
      <point x="1013" y="28"/>
      <point x="999" y="28" type="curve" smooth="yes"/>
      <point x="978" y="28"/>
      <point x="983" y="-34"/>
      <point x="946" y="-63" type="curve" smooth="yes"/>
      <point x="924" y="-80"/>
      <point x="899" y="-90"/>
      <point x="871" y="-95" type="curve" smooth="yes"/>
      <point x="817" y="-103"/>
      <point x="760" y="-104"/>
      <point x="707" y="-94" type="curve" smooth="yes"/>
      <point x="636" y="-80"/>
      <point x="509" y="-33"/>
      <point x="326" y="46" type="curve"/>
      <point x="414" y="119" type="line" smooth="yes"/>
      <point x="541" y="224"/>
      <point x="614" y="311"/>
      <point x="717" y="448" type="curve" smooth="yes"/>
      <point x="802" y="560"/>
      <point x="860" y="631"/>
      <point x="893" y="661" type="curve"/>
      <point x="934" y="651"/>
      <point x="969" y="646"/>
      <point x="996" y="646" type="curve" smooth="yes"/>
      <point x="1063" y="646"/>
      <point x="1085" y="689"/>
      <point x="1085" y="716" type="curve" smooth="yes"/>
      <point x="1085" y="733"/>
      <point x="1075" y="746"/>
      <point x="1056" y="754" type="curve" smooth="yes"/>
      <point x="1003" y="779"/>
      <point x="922" y="721"/>
      <point x="876" y="685" type="curve"/>
      <point x="729" y="731" type="line"/>
      <point x="691" y="742"/>
      <point x="608" y="766"/>
      <point x="532" y="766" type="curve" smooth="yes"/>
      <point x="454" y="766"/>
      <point x="357" y="744"/>
      <point x="315" y="693" type="curve" smooth="yes"/>
      <point x="292" y="665"/>
      <point x="280" y="635"/>
      <point x="280" y="604" type="curve" smooth="yes"/>
      <point x="280" y="577"/>
      <point x="290" y="551"/>
      <point x="310" y="528" type="curve" smooth="yes"/>
      <point x="342" y="492"/>
      <point x="402" y="491"/>
      <point x="359" y="521" type="curve" smooth="yes"/>
      <point x="329" y="542"/>
      <point x="314" y="564"/>
      <point x="314" y="588" type="curve" smooth="yes"/>
      <point x="314" y="611"/>
      <point x="328" y="635"/>
      <point x="357" y="658" type="curve" smooth="yes"/>
      <point x="419" y="706"/>
      <point x="503" y="711"/>
      <point x="577" y="711" type="curve" smooth="yes"/>
      <point x="664" y="711"/>
      <point x="758" y="697"/>
      <point x="857" y="670" type="curve"/>
      <point x="782" y="609"/>
      <point x="711" y="539"/>
      <point x="644" y="460" type="curve" smooth="yes"/>
      <point x="592" y="397"/>
      <point x="479" y="264"/>
      <point x="306" y="61" type="curve"/>
      <point x="251" y="96"/>
      <point x="179" y="140"/>
      <point x="114" y="140" type="curve" smooth="yes"/>
      <point x="46" y="140"/>
      <point x="6" y="86"/>
      <point x="25" y="29" type="curve" smooth="yes"/>
      <point x="36" y="-6"/>
      <point x="61" y="-28"/>
      <point x="101" y="-37" type="curve" smooth="yes"/>
      <point x="166" y="-52"/>
      <point x="245" y="-8"/>
      <point x="301" y="32" type="curve"/>
      <point x="386" y="-16" type="line" smooth="yes"/>
      <point x="499" y="-80"/>
      <point x="683" y="-158"/>
    </contour>
    <contour>
      <point x="153" y="-8" type="curve" smooth="yes"/>
      <point x="95" y="-8"/>
      <point x="65" y="21"/>
      <point x="65" y="47" type="curve" smooth="yes"/>
      <point x="65" y="83"/>
      <point x="93" y="105"/>
      <point x="137" y="105" type="curve" smooth="yes"/>
      <point x="190" y="105"/>
      <point x="244" y="77"/>
      <point x="287" y="42" type="curve"/>
      <point x="258" y="17"/>
      <point x="201" y="-8"/>
    </contour>
    <contour>
      <point x="993" y="660" type="curve" smooth="yes"/>
      <point x="973" y="660"/>
      <point x="945" y="665"/>
      <point x="908" y="676" type="curve"/>
      <point x="959" y="719"/>
      <point x="999" y="741"/>
      <point x="1026" y="741" type="curve" smooth="yes"/>
      <point x="1049" y="741"/>
      <point x="1056" y="721"/>
      <point x="1056" y="710" type="curve" smooth="yes"/>
      <point x="1056" y="671"/>
      <point x="1033" y="660"/>
    </contour>
  </outline>
</glyph>
<glyph name="backslash" format="2">
  <advance width="1157"/>
  <unicode hex="005C"/>
  <note>
backslash
</note>
  <outline>
    <contour>
      <point x="1224" y="-153" type="curve"/>
      <point x="1233" y="-146" type="line"/>
      <point x="1232" y="-142"/>
      <point x="1228" y="-136"/>
      <point x="1222" y="-128" type="curve"/>
      <point x="1130" y="-33"/>
      <point x="1044" y="69"/>
      <point x="964" y="179" type="curve" smooth="yes"/>
      <point x="840" y="351" type="line" smooth="yes"/>
      <point x="786" y="424"/>
      <point x="747" y="478"/>
      <point x="722" y="511" type="curve" smooth="yes"/>
      <point x="556" y="732"/>
      <point x="420" y="843"/>
      <point x="312" y="843" type="curve" smooth="yes"/>
      <point x="264" y="843"/>
      <point x="236" y="829"/>
      <point x="226" y="800" type="curve"/>
      <point x="235" y="791" type="line"/>
      <point x="238" y="792"/>
      <point x="245" y="795"/>
      <point x="257" y="800" type="curve" smooth="yes"/>
      <point x="269" y="806"/>
      <point x="279" y="808"/>
      <point x="285" y="808" type="curve" smooth="yes"/>
      <point x="365" y="808"/>
      <point x="505" y="669"/>
      <point x="648" y="488" type="curve" smooth="yes"/>
      <point x="719" y="398"/>
      <point x="789" y="307"/>
      <point x="860" y="215" type="curve" smooth="yes"/>
      <point x="1032" y="-9"/>
      <point x="1153" y="-132"/>
    </contour>
  </outline>
</glyph>
<glyph name="bracketright" format="2">
  <advance width="502"/>
  <unicode hex="005D"/>
  <note>
bracketright
</note>
  <outline>
    <contour>
      <point x="80" y="-9" type="curve" smooth="yes"/>
      <point x="121" y="-6"/>
      <point x="186" y="11"/>
      <point x="219" y="45" type="curve" smooth="yes"/>
      <point x="384" y="211"/>
      <point x="547" y="585"/>
      <point x="547" y="814" type="curve" smooth="yes"/>
      <point x="547" y="859"/>
      <point x="523" y="869"/>
      <point x="471" y="869" type="curve" smooth="yes"/>
      <point x="365" y="869"/>
      <point x="307" y="850"/>
      <point x="296" y="811" type="curve"/>
      <point x="300" y="808" type="line"/>
      <point x="433" y="813" type="line" smooth="yes"/>
      <point x="451" y="813"/>
      <point x="464" y="811"/>
      <point x="473" y="808" type="curve"/>
      <point x="475" y="796"/>
      <point x="476" y="784"/>
      <point x="476" y="772" type="curve" smooth="yes"/>
      <point x="476" y="604"/>
      <point x="314" y="240"/>
      <point x="191" y="103" type="curve" smooth="yes"/>
      <point x="149" y="55"/>
      <point x="78" y="41"/>
      <point x="30" y="41" type="curve" smooth="yes"/>
      <point x="8" y="43" type="line" smooth="yes"/>
      <point x="-51" y="43"/>
      <point x="-84" y="27"/>
      <point x="-90" y="-5" type="curve"/>
      <point x="-76" y="-11"/>
      <point x="-20" y="-12"/>
    </contour>
  </outline>
</glyph>
<glyph name="c" format="2">
  <advance width="371"/>
  <unicode hex="0063"/>
  <note>
c
</note>
  <outline>
    <contour>
      <point x="248" y="-13" type="curve" smooth="yes"/>
      <point x="326" y="-13"/>
      <point x="387" y="15"/>
      <point x="432" y="71" type="curve" smooth="yes"/>
      <point x="490" y="142"/>
      <point x="551" y="251"/>
      <point x="551" y="285" type="curve" smooth="yes"/>
      <point x="551" y="295"/>
      <point x="539" y="305"/>
      <point x="525" y="278" type="curve" smooth="yes"/>
      <point x="483" y="194"/>
      <point x="469" y="168"/>
      <point x="423" y="105" type="curve" smooth="yes"/>
      <point x="376" y="42"/>
      <point x="325" y="14"/>
      <point x="264" y="14" type="curve" smooth="yes"/>
      <point x="202" y="14"/>
      <point x="144" y="62"/>
      <point x="144" y="133" type="curve" smooth="yes"/>
      <point x="144" y="204"/>
      <point x="189" y="305"/>
      <point x="227" y="359" type="curve" smooth="yes"/>
      <point x="287" y="445"/>
      <point x="349" y="488"/>
      <point x="417" y="488" type="curve" smooth="yes"/>
      <point x="453" y="488"/>
      <point x="456" y="463"/>
      <point x="453" y="435" type="curve" smooth="yes"/>
      <point x="450" y="406"/>
      <point x="436" y="380"/>
      <point x="401" y="338" type="curve"/>
      <point x="408" y="331"/>
      <point x="416" y="328"/>
      <point x="426" y="328" type="curve" smooth="yes"/>
      <point x="435" y="328"/>
      <point x="447" y="334"/>
      <point x="461" y="347" type="curve" smooth="yes"/>
      <point x="489" y="371"/>
      <point x="503" y="402"/>
      <point x="503" y="436" type="curve" smooth="yes"/>
      <point x="503" y="482"/>
      <point x="472" y="521"/>
      <point x="398" y="521" type="curve" smooth="yes"/>
      <point x="322" y="521"/>
      <point x="255" y="482"/>
      <point x="197" y="403" type="curve" smooth="yes"/>
      <point x="141" y="326"/>
      <point x="90" y="212"/>
      <point x="90" y="124" type="curve" smooth="yes"/>
      <point x="90" y="52"/>
      <point x="136" y="-13"/>
    </contour>
  </outline>
</glyph>
<glyph name="d" format="2">
  <advance width="552"/>
  <unicode hex="0064"/>
  <note>
d
</note>
  <outline>
    <contour>
      <point x="198" y="-12" type="curve" smooth="yes"/>
      <point x="256" y="-12"/>
      <point x="325" y="53"/>
      <point x="405" y="182" type="curve"/>
      <point x="393" y="136"/>
      <point x="379" y="71"/>
      <point x="404" y="30" type="curve" smooth="yes"/>
      <point x="422" y="2"/>
      <point x="445" y="-12"/>
      <point x="474" y="-12" type="curve" smooth="yes"/>
      <point x="537" y="-12"/>
      <point x="615" y="81"/>
      <point x="707" y="267" type="curve"/>
      <point x="721" y="300"/>
      <point x="697" y="305"/>
      <point x="686" y="279" type="curve" smooth="yes"/>
      <point x="646" y="197"/>
      <point x="605" y="131"/>
      <point x="564" y="80" type="curve" smooth="yes"/>
      <point x="536" y="45"/>
      <point x="513" y="27"/>
      <point x="494" y="27" type="curve" smooth="yes"/>
      <point x="454" y="27"/>
      <point x="430" y="72"/>
      <point x="443" y="133" type="curve" smooth="yes"/>
      <point x="451" y="174"/>
      <point x="499" y="257"/>
      <point x="532" y="322" type="curve" smooth="yes"/>
      <point x="613" y="481"/>
      <point x="642" y="536"/>
      <point x="727" y="696" type="curve" smooth="yes"/>
      <point x="753" y="744"/>
      <point x="783" y="800"/>
      <point x="813" y="829" type="curve"/>
      <point x="782" y="819"/>
      <point x="759" y="831"/>
      <point x="745" y="820" type="curve" smooth="yes"/>
      <point x="715" y="796"/>
      <point x="604" y="573"/>
      <point x="566" y="497" type="curve"/>
      <point x="464" y="570"/>
      <point x="314" y="495"/>
      <point x="233" y="402" type="curve" smooth="yes"/>
      <point x="148" y="301"/>
      <point x="110" y="209"/>
      <point x="110" y="111" type="curve" smooth="yes"/>
      <point x="110" y="37"/>
      <point x="148" y="-12"/>
    </contour>
    <contour>
      <point x="216" y="32" type="curve" smooth="yes"/>
      <point x="168" y="32"/>
      <point x="153" y="68"/>
      <point x="158" y="118" type="curve" smooth="yes"/>
      <point x="167" y="204"/>
      <point x="222" y="310"/>
      <point x="293" y="387" type="curve" smooth="yes"/>
      <point x="373" y="474"/>
      <point x="473" y="525"/>
      <point x="550" y="472" type="curve"/>
      <point x="535" y="445"/>
      <point x="481" y="355"/>
      <point x="452" y="308" type="curve" smooth="yes"/>
      <point x="347" y="138"/>
      <point x="276" y="32"/>
    </contour>
  </outline>
</glyph>
<glyph name="g" format="2">
  <advance width="452"/>
  <unicode hex="0067"/>
  <note>
g
</note>
  <anchor x="210" y="511" name="top"/>
  <outline>
    <contour>
      <point x="97" y="-382" type="curve" smooth="yes"/>
      <point x="202" y="-382"/>
      <point x="283" y="-296"/>
      <point x="342" y="-198" type="curve" smooth="yes"/>
      <point x="374" y="-143"/>
      <point x="392" y="-95"/>
      <point x="413" y="-36" type="curve" smooth="yes"/>
      <point x="426" y="1" type="line"/>
      <point x="483" y="22"/>
      <point x="552" y="109"/>
      <point x="628" y="267" type="curve" smooth="yes"/>
      <point x="644" y="299"/>
      <point x="618" y="305"/>
      <point x="607" y="279" type="curve" smooth="yes"/>
      <point x="567" y="197"/>
      <point x="526" y="131"/>
      <point x="485" y="80" type="curve" smooth="yes"/>
      <point x="466" y="56"/>
      <point x="452" y="44"/>
      <point x="434" y="32" type="curve"/>
      <point x="442" y="72"/>
      <point x="470" y="174"/>
      <point x="495" y="259" type="curve" smooth="yes"/>
      <point x="527" y="372" type="line"/>
      <point x="506" y="364"/>
      <point x="477" y="362"/>
      <point x="467" y="364" type="curve"/>
      <point x="425" y="246" type="line" smooth="yes"/>
      <point x="370" y="92"/>
      <point x="296" y="32"/>
      <point x="243" y="32" type="curve" smooth="yes"/>
      <point x="218" y="32"/>
      <point x="187" y="51"/>
      <point x="187" y="90" type="curve" smooth="yes"/>
      <point x="187" y="216"/>
      <point x="268" y="335"/>
      <point x="315" y="387" type="curve" smooth="yes"/>
      <point x="378" y="455"/>
      <point x="440" y="489"/>
      <point x="524" y="489" type="curve" smooth="yes"/>
      <point x="561" y="489"/>
      <point x="567" y="470"/>
      <point x="596" y="445" type="curve" smooth="yes"/>
      <point x="614" y="429"/>
      <point x="632" y="457"/>
      <point x="612" y="479" type="curve" smooth="yes"/>
      <point x="580" y="511"/>
      <point x="541" y="527"/>
      <point x="495" y="527" type="curve" smooth="yes"/>
      <point x="444" y="527"/>
      <point x="341" y="499"/>
      <point x="264" y="410" type="curve" smooth="yes"/>
      <point x="179" y="309"/>
      <point x="137" y="209"/>
      <point x="137" y="111" type="curve" smooth="yes"/>
      <point x="137" y="37"/>
      <point x="175" y="-12"/>
      <point x="225" y="-12" type="curve" smooth="yes"/>
      <point x="264" y="-12"/>
      <point x="317" y="15"/>
      <point x="367" y="74" type="curve" smooth="yes"/>
      <point x="390" y="101"/>
      <point x="405" y="138"/>
      <point x="429" y="178" type="curve"/>
      <point x="395" y="28" type="line"/>
      <point x="302" y="-7" type="line" smooth="yes"/>
      <point x="152" y="-64"/>
      <point x="-17" y="-177"/>
      <point x="-25" y="-294" type="curve" smooth="yes"/>
      <point x="-31" y="-377"/>
      <point x="46" y="-382"/>
    </contour>
    <contour>
      <point x="208" y="-307" type="curve" smooth="yes"/>
      <point x="147" y="-358"/>
      <point x="12" y="-377"/>
      <point x="15" y="-295" type="curve" smooth="yes"/>
      <point x="18" y="-200"/>
      <point x="94" y="-161"/>
      <point x="167" y="-113" type="curve" smooth="yes"/>
      <point x="246" y="-61"/>
      <point x="358" y="-17"/>
      <point x="384" y="-7" type="curve"/>
      <point x="369" y="-80"/>
      <point x="334" y="-145"/>
      <point x="303" y="-191" type="curve" smooth="yes"/>
      <point x="267" y="-244"/>
      <point x="238" y="-282"/>
    </contour>
  </outline>
</glyph>
<glyph name="l" format="2">
  <advance width="324"/>
  <unicode hex="006C"/>
  <note>
l
</note>
  <outline>
    <contour>
      <point x="211" y="-14" type="curve" smooth="yes"/>
      <point x="286" y="-14"/>
      <point x="339" y="38"/>
      <point x="386" y="96" type="curve" smooth="yes"/>
      <point x="414" y="130"/>
      <point x="463" y="231"/>
      <point x="477" y="275" type="curve" smooth="yes"/>
      <point x="482" y="291"/>
      <point x="464" y="297"/>
      <point x="454" y="275" type="curve" smooth="yes"/>
      <point x="385" y="123"/>
      <point x="313" y="17"/>
      <point x="241" y="17" type="curve" smooth="yes"/>
      <point x="165" y="17"/>
      <point x="151" y="62"/>
      <point x="151" y="105" type="curve" smooth="yes"/>
      <point x="151" y="166"/>
      <point x="170" y="214"/>
      <point x="190" y="278" type="curve"/>
      <point x="267" y="349"/>
      <point x="514" y="683"/>
      <point x="514" y="788" type="curve" smooth="yes"/>
      <point x="514" y="818"/>
      <point x="503" y="860"/>
      <point x="466" y="860" type="curve" smooth="yes"/>
      <point x="397" y="860"/>
      <point x="354" y="796"/>
      <point x="325" y="742" type="curve" smooth="yes"/>
      <point x="299" y="692"/>
      <point x="268.95" y="626.884"/>
      <point x="237" y="553" type="curve" smooth="yes"/>
      <point x="195" y="455"/>
      <point x="165" y="363"/>
      <point x="123" y="230" type="curve" smooth="yes"/>
      <point x="102" y="164"/>
      <point x="91" y="92"/>
      <point x="112" y="43" type="curve" smooth="yes"/>
      <point x="127" y="9"/>
      <point x="157" y="-14"/>
    </contour>
    <contour>
      <point x="202" y="326" type="curve"/>
      <point x="227" y="393"/>
      <point x="260" y="469"/>
      <point x="291" y="542" type="curve" smooth="yes"/>
      <point x="319" y="610"/>
      <point x="355" y="677"/>
      <point x="382" y="732" type="curve" smooth="yes"/>
      <point x="412" y="790"/>
      <point x="444" y="829"/>
      <point x="470" y="829" type="curve" smooth="yes"/>
      <point x="488" y="829"/>
      <point x="497" y="796"/>
      <point x="483.353" y="763.472" type="curve" smooth="yes"/>
      <point x="436" y="652"/>
      <point x="304" y="430"/>
    </contour>
  </outline>
</glyph>
<glyph name="s" format="2">
  <advance width="411"/>
  <unicode hex="0073"/>
  <note>
s
</note>
  <outline>
    <contour>
      <point x="193" y="-24" type="curve" smooth="yes"/>
      <point x="211" y="-24"/>
      <point x="232" y="-19"/>
      <point x="255" y="-9" type="curve"/>
      <point x="290" y="-19"/>
      <point x="326" y="-18"/>
      <point x="363" y="-6" type="curve" smooth="yes"/>
      <point x="386" y="1"/>
      <point x="407" y="12"/>
      <point x="454" y="63" type="curve" smooth="yes"/>
      <point x="482" y="93"/>
      <point x="516" y="142"/>
      <point x="540" y="179" type="curve" smooth="yes"/>
      <point x="562" y="213"/>
      <point x="584" y="252"/>
      <point x="589" y="266" type="curve" smooth="yes"/>
      <point x="593" y="277"/>
      <point x="576" y="285"/>
      <point x="568" y="269" type="curve" smooth="yes"/>
      <point x="515" y="163"/>
      <point x="456" y="99"/>
      <point x="435" y="78" type="curve" smooth="yes"/>
      <point x="388" y="31"/>
      <point x="355" y="0"/>
      <point x="289" y="10" type="curve"/>
      <point x="347" y="50"/>
      <point x="396" y="120"/>
      <point x="396" y="186" type="curve" smooth="yes"/>
      <point x="396" y="219"/>
      <point x="384" y="261"/>
      <point x="361" y="313" type="curve" smooth="yes"/>
      <point x="341" y="355"/>
      <point x="318" y="385"/>
      <point x="322" y="441" type="curve" smooth="yes"/>
      <point x="326" y="494"/>
      <point x="339" y="528"/>
      <point x="373" y="544" type="curve" smooth="yes"/>
      <point x="395" y="555"/>
      <point x="434" y="523"/>
      <point x="444" y="546" type="curve" smooth="yes"/>
      <point x="451" y="562"/>
      <point x="416" y="577"/>
      <point x="388" y="577" type="curve" smooth="yes"/>
      <point x="335" y="577"/>
      <point x="289" y="535"/>
      <point x="249" y="450" type="curve" smooth="yes"/>
      <point x="213" y="372"/>
      <point x="169" y="284"/>
      <point x="118" y="187" type="curve"/>
      <point x="71" y="184"/>
      <point x="52" y="114"/>
      <point x="64" y="60" type="curve" smooth="yes"/>
      <point x="79" y="4"/>
      <point x="122" y="-24"/>
    </contour>
    <contour>
      <point x="183" y="1" type="curve" smooth="yes"/>
      <point x="154" y="1"/>
      <point x="112" y="8"/>
      <point x="97" y="42" type="curve" smooth="yes"/>
      <point x="77" y="88"/>
      <point x="74" y="150"/>
      <point x="149" y="150" type="curve"/>
      <point x="152" y="98"/>
      <point x="176" y="30"/>
      <point x="213" y="7" type="curve"/>
      <point x="205" y="3"/>
      <point x="195" y="1"/>
    </contour>
    <contour>
      <point x="238" y="21" type="curve"/>
      <point x="196" y="41"/>
      <point x="175" y="80"/>
      <point x="175" y="139" type="curve" smooth="yes"/>
      <point x="175" y="169"/>
      <point x="165" y="184"/>
      <point x="144" y="184" type="curve"/>
      <point x="162" y="217"/>
      <point x="209" y="310"/>
      <point x="285" y="462" type="curve"/>
      <point x="277" y="408"/>
      <point x="344" y="298"/>
      <point x="344" y="186" type="curve" smooth="yes"/>
      <point x="344" y="110"/>
      <point x="282" y="55"/>
    </contour>
  </outline>
</glyph>
<glyph name="asciitilde" format="2">
  <advance width="485"/>
  <unicode hex="007E"/>
  <note>
asciitilde
</note>
  <outline>
    <contour>
      <point x="387" y="473" type="curve" smooth="yes"/>
      <point x="441" y="473"/>
      <point x="488" y="513"/>
      <point x="527" y="593" type="curve"/>
      <point x="525" y="598"/>
      <point x="517" y="600"/>
      <point x="504" y="600" type="curve" smooth="yes"/>
      <point x="499" y="600"/>
      <point x="496" y="599"/>
      <point x="495" y="596" type="curve" smooth="yes"/>
      <point x="478" y="561"/>
      <point x="454" y="543"/>
      <point x="423" y="543" type="curve" smooth="yes"/>
      <point x="379" y="543"/>
      <point x="313" y="597"/>
      <point x="222" y="597" type="curve" smooth="yes"/>
      <point x="172" y="597"/>
      <point x="126" y="560"/>
      <point x="84" y="485" type="curve"/>
      <point x="84" y="483"/>
      <point x="87" y="481"/>
      <point x="92" y="479" type="curve" smooth="yes"/>
      <point x="108" y="474"/>
      <point x="117" y="475"/>
      <point x="119" y="482" type="curve"/>
      <point x="137" y="515"/>
      <point x="158" y="531"/>
      <point x="183" y="531" type="curve" smooth="yes"/>
      <point x="208" y="531"/>
      <point x="244" y="521"/>
      <point x="291" y="500" type="curve" smooth="yes"/>
      <point x="333" y="482"/>
      <point x="365" y="473"/>
    </contour>
  </outline>
</glyph>
<glyph name="yen" format="2">
  <advance width="942"/>
  <unicode hex="00A5"/>
  <note>
yen
</note>
  <outline>
    <contour>
      <point x="105" y="-170" type="curve" smooth="yes"/>
      <point x="159" y="-170"/>
      <point x="215" y="-148"/>
      <point x="270" y="-104" type="curve" smooth="yes"/>
      <point x="320" y="-63"/>
      <point x="379" y="9"/>
      <point x="448" y="112" type="curve"/>
      <point x="568" y="112" type="line"/>
      <point x="588" y="119"/>
      <point x="597" y="148"/>
      <point x="587" y="139" type="curve"/>
      <point x="465" y="139" type="line"/>
      <point x="529" y="252" type="line"/>
      <point x="649" y="252" type="line" smooth="yes"/>
      <point x="662" y="252"/>
      <point x="675" y="272"/>
      <point x="668" y="278" type="curve"/>
      <point x="543" y="278" type="line"/>
      <point x="553" y="295" type="line" smooth="yes"/>
      <point x="671" y="502"/>
      <point x="758" y="605"/>
      <point x="817" y="605" type="curve" smooth="yes"/>
      <point x="851" y="605"/>
      <point x="880" y="574"/>
      <point x="880" y="540" type="curve"/>
      <point x="878" y="526" type="line"/>
      <point x="878" y="520"/>
      <point x="881" y="518"/>
      <point x="887" y="518" type="curve" smooth="yes"/>
      <point x="893" y="518"/>
      <point x="896" y="527"/>
      <point x="896" y="545" type="curve" smooth="yes"/>
      <point x="896" y="582"/>
      <point x="859" y="621"/>
      <point x="819" y="621" type="curve" smooth="yes"/>
      <point x="778" y="621"/>
      <point x="727" y="587"/>
      <point x="691" y="551" type="curve" smooth="yes"/>
      <point x="673" y="533"/>
      <point x="652" y="509"/>
      <point x="630" y="480" type="curve" smooth="yes"/>
      <point x="583" y="421"/>
      <point x="570" y="398"/>
      <point x="551" y="368" type="curve" smooth="yes"/>
      <point x="519" y="320"/>
      <point x="479" y="279"/>
      <point x="479" y="252" type="curve"/>
      <point x="455" y="216" type="line"/>
      <point x="448" y="327"/>
      <point x="414" y="420"/>
      <point x="349" y="497" type="curve" smooth="yes"/>
      <point x="313" y="539"/>
      <point x="271" y="560"/>
      <point x="224" y="560" type="curve" smooth="yes"/>
      <point x="156" y="560"/>
      <point x="108" y="482"/>
      <point x="108" y="410" type="curve" smooth="yes"/>
      <point x="108" y="374"/>
      <point x="119" y="342"/>
      <point x="139" y="314" type="curve" smooth="yes"/>
      <point x="142" y="312"/>
      <point x="144" y="310"/>
      <point x="146" y="310" type="curve" smooth="yes"/>
      <point x="151" y="310"/>
      <point x="154" y="313"/>
      <point x="154" y="319" type="curve"/>
      <point x="114" y="392"/>
      <point x="113" y="441"/>
      <point x="151" y="500" type="curve" smooth="yes"/>
      <point x="171" y="529"/>
      <point x="194" y="544"/>
      <point x="221" y="544" type="curve" smooth="yes"/>
      <point x="275" y="544"/>
      <point x="319" y="500"/>
      <point x="347" y="440" type="curve" smooth="yes"/>
      <point x="373" y="383"/>
      <point x="391" y="329"/>
      <point x="399" y="278" type="curve"/>
      <point x="251" y="278" type="line" smooth="yes"/>
      <point x="237" y="278"/>
      <point x="224" y="252"/>
      <point x="234" y="252" type="curve" smooth="yes"/>
      <point x="403" y="252" type="line"/>
      <point x="408" y="211"/>
      <point x="411" y="176"/>
      <point x="411" y="148" type="curve"/>
      <point x="405" y="139" type="line"/>
      <point x="132" y="139" type="line"/>
      <point x="112" y="132"/>
      <point x="103" y="102"/>
      <point x="115" y="112" type="curve"/>
      <point x="387" y="112" type="line"/>
      <point x="349" y="55"/>
      <point x="309" y="2"/>
      <point x="267" y="-49" type="curve" smooth="yes"/>
      <point x="208" y="-119"/>
      <point x="151" y="-154"/>
      <point x="99" y="-154" type="curve" smooth="yes"/>
      <point x="88" y="-154"/>
      <point x="82" y="-157"/>
      <point x="82" y="-162" type="curve" smooth="yes"/>
      <point x="82" y="-167"/>
      <point x="90" y="-170"/>
    </contour>
  </outline>
</glyph>
<glyph name="guillemotleft" format="2">
  <advance width="551"/>
  <unicode hex="00AB"/>
  <note>
guillemotleft
</note>
  <outline>
    <contour>
      <point x="295" y="19" type="curve" smooth="yes"/>
      <point x="301" y="23"/>
      <point x="294" y="40"/>
      <point x="287" y="56" type="curve" smooth="yes"/>
      <point x="201" y="254" type="line"/>
      <point x="410" y="359" type="line" smooth="yes"/>
      <point x="428" y="369"/>
      <point x="442" y="408"/>
      <point x="427" y="403" type="curve" smooth="yes"/>
      <point x="243" y="332" type="line" smooth="yes"/>
      <point x="197" y="314"/>
      <point x="133" y="285"/>
      <point x="125" y="265" type="curve" smooth="yes"/>
      <point x="118" y="248"/>
      <point x="156" y="176"/>
      <point x="202" y="113" type="curve" smooth="yes"/>
      <point x="261" y="32"/>
      <point x="282" y="11"/>
    </contour>
    <contour>
      <point x="505" y="19" type="curve" smooth="yes"/>
      <point x="511" y="23"/>
      <point x="504" y="40"/>
      <point x="497" y="56" type="curve" smooth="yes"/>
      <point x="411" y="254" type="line"/>
      <point x="620" y="359" type="line" smooth="yes"/>
      <point x="638" y="369"/>
      <point x="652" y="408"/>
      <point x="637" y="403" type="curve" smooth="yes"/>
      <point x="453" y="332" type="line" smooth="yes"/>
      <point x="407" y="314"/>
      <point x="343" y="285"/>
      <point x="335" y="265" type="curve" smooth="yes"/>
      <point x="328" y="248"/>
      <point x="366" y="176"/>
      <point x="412" y="113" type="curve" smooth="yes"/>
      <point x="471" y="32"/>
      <point x="492" y="11"/>
    </contour>
  </outline>
</glyph>
<glyph name="guillemotright" format="2">
  <advance width="616"/>
  <unicode hex="00BB"/>
  <note>
guillemotright
</note>
  <outline>
    <contour>
      <point x="167" y="60" type="curve" smooth="yes"/>
      <point x="176" y="47"/>
      <point x="203" y="59"/>
      <point x="288" y="112" type="curve" smooth="yes"/>
      <point x="354" y="153"/>
      <point x="417" y="206"/>
      <point x="417" y="224" type="curve" smooth="yes"/>
      <point x="417" y="246"/>
      <point x="368" y="297"/>
      <point x="332" y="331" type="curve" smooth="yes"/>
      <point x="188" y="465" type="line" smooth="yes"/>
      <point x="176" y="476"/>
      <point x="174" y="434"/>
      <point x="188" y="418" type="curve" smooth="yes"/>
      <point x="342" y="243" type="line"/>
      <point x="188" y="91" type="line" smooth="yes"/>
      <point x="176" y="79"/>
      <point x="163" y="66"/>
    </contour>
    <contour>
      <point x="377" y="60" type="curve" smooth="yes"/>
      <point x="386" y="47"/>
      <point x="413" y="59"/>
      <point x="498" y="112" type="curve" smooth="yes"/>
      <point x="564" y="153"/>
      <point x="627" y="206"/>
      <point x="627" y="224" type="curve" smooth="yes"/>
      <point x="627" y="246"/>
      <point x="578" y="297"/>
      <point x="542" y="331" type="curve" smooth="yes"/>
      <point x="398" y="465" type="line" smooth="yes"/>
      <point x="386" y="476"/>
      <point x="384" y="434"/>
      <point x="398" y="418" type="curve" smooth="yes"/>
      <point x="552" y="243" type="line"/>
      <point x="398" y="91" type="line" smooth="yes"/>
      <point x="386" y="79"/>
      <point x="373" y="66"/>
    </contour>
  </outline>
</glyph>
<glyph name="onehalf" format="2">
  <advance width="746"/>
  <unicode hex="00BD"/>
  <note>
onehalf
</note>
  <outline>
    <contour>
      <point x="210" y="290" type="line"/>
      <point x="240" y="292"/>
      <point x="259" y="294"/>
      <point x="262" y="296" type="curve"/>
      <point x="521" y="782" type="line"/>
      <point x="554" y="845" type="line"/>
      <point x="500" y="847" type="line" smooth="yes"/>
      <point x="477" y="847"/>
      <point x="456" y="827"/>
      <point x="322" y="737" type="curve" smooth="yes"/>
      <point x="296" y="719"/>
      <point x="311" y="719"/>
      <point x="315" y="719" type="curve"/>
      <point x="326" y="719"/>
      <point x="412" y="756"/>
      <point x="474" y="787" type="curve"/>
      <point x="214" y="297" type="line"/>
    </contour>
    <contour>
      <point x="107" y="-82" type="curve" smooth="yes"/>
      <point x="137" y="-82"/>
      <point x="253" y="32"/>
      <point x="440" y="260" type="curve" smooth="yes"/>
      <point x="524" y="360"/>
      <point x="630" y="506"/>
      <point x="697" y="590" type="curve" smooth="yes"/>
      <point x="883" y="823" type="line" smooth="yes"/>
      <point x="889" y="831"/>
      <point x="892" y="836"/>
      <point x="892" y="841" type="curve" smooth="yes"/>
      <point x="892" y="850"/>
      <point x="882" y="854"/>
      <point x="873" y="854" type="curve" smooth="yes"/>
      <point x="854" y="854"/>
      <point x="840" y="848"/>
      <point x="830" y="836" type="curve" smooth="yes"/>
      <point x="800" y="796"/>
      <point x="730" y="703"/>
      <point x="641" y="591" type="curve" smooth="yes"/>
      <point x="563" y="492"/>
      <point x="471" y="378"/>
      <point x="384" y="271" type="curve" smooth="yes"/>
      <point x="273" y="134"/>
      <point x="170" y="8"/>
      <point x="109" y="-60" type="curve" smooth="yes"/>
      <point x="103" y="-67"/>
      <point x="100" y="-72"/>
      <point x="100" y="-76" type="curve" smooth="yes"/>
      <point x="100" y="-80"/>
      <point x="103" y="-82"/>
    </contour>
    <contour>
      <point x="663" y="-14" type="curve" smooth="yes"/>
      <point x="702" y="-14"/>
      <point x="752" y="24"/>
      <point x="815" y="100" type="curve"/>
      <point x="815" y="104" type="line"/>
      <point x="807" y="110" type="line"/>
      <point x="796" y="107"/>
      <point x="775" y="80"/>
      <point x="747" y="56" type="curve" smooth="yes"/>
      <point x="735" y="46"/>
      <point x="701" y="16"/>
      <point x="686" y="16" type="curve" smooth="yes"/>
      <point x="671" y="16"/>
      <point x="638" y="29"/>
      <point x="564" y="65" type="curve"/>
      <point x="567" y="68"/>
      <point x="776" y="267"/>
      <point x="855" y="359" type="curve" smooth="yes"/>
      <point x="899" y="409"/>
      <point x="915" y="449"/>
      <point x="915" y="480" type="curve" smooth="yes"/>
      <point x="915" y="500"/>
      <point x="905" y="516"/>
      <point x="891" y="529" type="curve" smooth="yes"/>
      <point x="875" y="544"/>
      <point x="854" y="551"/>
      <point x="828" y="551" type="curve" smooth="yes"/>
      <point x="739" y="551"/>
      <point x="660" y="468"/>
      <point x="627" y="374" type="curve"/>
      <point x="628" y="368" type="line"/>
      <point x="640" y="368" type="line"/>
      <point x="644" y="372" type="line"/>
      <point x="672" y="446"/>
      <point x="736" y="521"/>
      <point x="800" y="522" type="curve" smooth="yes"/>
      <point x="843" y="523"/>
      <point x="867" y="507"/>
      <point x="867" y="479" type="curve" smooth="yes"/>
      <point x="867" y="451"/>
      <point x="860" y="411"/>
      <point x="823" y="367" type="curve" smooth="yes"/>
      <point x="758" y="288"/>
      <point x="655" y="188"/>
      <point x="534" y="76" type="curve"/>
      <point x="530" y="79"/>
      <point x="523" y="80"/>
      <point x="513" y="77" type="curve" smooth="yes"/>
      <point x="507" y="76"/>
      <point x="435" y="4"/>
      <point x="433" y="-2" type="curve"/>
      <point x="446" y="-10" type="line"/>
      <point x="513" y="43" type="line"/>
      <point x="539" y="34"/>
      <point x="601" y="-14"/>
    </contour>
  </outline>
</glyph>
<glyph name="questiondown" format="2">
  <advance width="583"/>
  <unicode hex="00BF"/>
  <note>
questiondown
</note>
  <outline>
    <contour>
      <point x="511" y="275" type="curve" smooth="yes"/>
      <point x="470" y="164"/>
      <point x="416" y="97"/>
      <point x="315" y="-3" type="curve" smooth="yes"/>
      <point x="264" y="-52"/>
      <point x="228" y="-88"/>
      <point x="207" y="-111" type="curve" smooth="yes"/>
      <point x="147" y="-179"/>
      <point x="116" y="-239"/>
      <point x="116" y="-290" type="curve" smooth="yes"/>
      <point x="116" y="-340"/>
      <point x="166" y="-389"/>
      <point x="245" y="-391" type="curve" smooth="yes"/>
      <point x="344" y="-394"/>
      <point x="502" y="-310"/>
      <point x="502" y="-211" type="curve" smooth="yes"/>
      <point x="502" y="-181"/>
      <point x="485" y="-140"/>
      <point x="434" y="-140" type="curve" smooth="yes"/>
      <point x="394" y="-140"/>
      <point x="361" y="-169"/>
      <point x="361" y="-214" type="curve" smooth="yes"/>
      <point x="361" y="-246"/>
      <point x="379" y="-262"/>
      <point x="409" y="-262" type="curve" smooth="yes"/>
      <point x="436" y="-262"/>
      <point x="469" y="-244"/>
      <point x="478" y="-212" type="curve"/>
      <point x="478" y="-219" type="line" smooth="yes"/>
      <point x="478" y="-286"/>
      <point x="375" y="-336"/>
      <point x="293" y="-335" type="curve" smooth="yes"/>
      <point x="239" y="-334"/>
      <point x="194" y="-308"/>
      <point x="194" y="-258" type="curve" smooth="yes"/>
      <point x="194" y="-225"/>
      <point x="231" y="-188"/>
      <point x="264" y="-146" type="curve" smooth="yes"/>
      <point x="276" y="-130"/>
      <point x="330" y="-68"/>
      <point x="432" y="62" type="curve" smooth="yes"/>
      <point x="464" y="106"/>
      <point x="523" y="202"/>
      <point x="538" y="265" type="curve" smooth="yes"/>
      <point x="541" y="283"/>
      <point x="519" y="291"/>
    </contour>
    <contour>
      <point x="574" y="509" type="curve" smooth="yes"/>
      <point x="549" y="509"/>
      <point x="511" y="490"/>
      <point x="511" y="440" type="curve" smooth="yes"/>
      <point x="511" y="426"/>
      <point x="526" y="403"/>
      <point x="555" y="403" type="curve" smooth="yes"/>
      <point x="585" y="403"/>
      <point x="619" y="425"/>
      <point x="619" y="471" type="curve" smooth="yes"/>
      <point x="619" y="485"/>
      <point x="603" y="509"/>
    </contour>
  </outline>
</glyph>
<glyph name="divide" format="2">
  <advance width="524"/>
  <unicode hex="00F7"/>
  <note>
divide
</note>
  <outline>
    <contour>
      <point x="102" y="233" type="line"/>
      <point x="618" y="233" type="line"/>
      <point x="621" y="234" type="line"/>
      <point x="621" y="261" type="line"/>
      <point x="618" y="263" type="line"/>
      <point x="102" y="263" type="line"/>
      <point x="100" y="261" type="line"/>
      <point x="100" y="234" type="line"/>
    </contour>
    <contour>
      <point x="310" y="-11" type="curve" smooth="yes"/>
      <point x="327" y="-11"/>
      <point x="343" y="-5"/>
      <point x="358" y="8" type="curve" smooth="yes"/>
      <point x="400" y="43"/>
      <point x="390" y="111"/>
      <point x="331" y="113" type="curve" smooth="yes"/>
      <point x="247" y="113"/>
      <point x="230" y="-11"/>
    </contour>
    <contour>
      <point x="375" y="326" type="curve" smooth="yes"/>
      <point x="459" y="326"/>
      <point x="476" y="449"/>
      <point x="396" y="449" type="curve" smooth="yes"/>
      <point x="362" y="449"/>
      <point x="328" y="421"/>
      <point x="324" y="387" type="curve" smooth="yes"/>
      <point x="318" y="353"/>
      <point x="341" y="326"/>
    </contour>
  </outline>
</glyph>
<glyph name="dotlessi" format="2">
  <advance width="248"/>
  <unicode hex="0131"/>
  <note>
dotlessi
</note>
  <anchor x="339" y="513" name="top"/>
  <outline>
    <contour>
      <point x="118" y="23" type="curve" smooth="yes"/>
      <point x="148" y="-13"/>
      <point x="185" y="-14"/>
      <point x="234" y="-1" type="curve" smooth="yes"/>
      <point x="263" y="7"/>
      <point x="287" y="30"/>
      <point x="313" y="60" type="curve" smooth="yes"/>
      <point x="343" y="94"/>
      <point x="388" y="173"/>
      <point x="401" y="201" type="curve" smooth="yes"/>
      <point x="423" y="248" type="line" smooth="yes"/>
      <point x="431" y="266"/>
      <point x="435" y="277"/>
      <point x="435" y="281" type="curve" smooth="yes"/>
      <point x="435" y="286"/>
      <point x="434" y="289"/>
      <point x="432" y="291" type="curve" smooth="yes"/>
      <point x="425" y="297"/>
      <point x="418" y="293"/>
      <point x="411" y="278" type="curve" smooth="yes"/>
      <point x="354" y="164"/>
      <point x="307" y="88"/>
      <point x="270" y="51" type="curve" smooth="yes"/>
      <point x="249" y="32"/>
      <point x="229" y="23"/>
      <point x="210" y="23" type="curve" smooth="yes"/>
      <point x="179" y="23"/>
      <point x="160" y="40"/>
      <point x="148" y="66" type="curve" smooth="yes"/>
      <point x="136" y="92"/>
      <point x="148" y="138"/>
      <point x="167" y="173" type="curve" smooth="yes"/>
      <point x="303" y="425" type="line" smooth="yes"/>
      <point x="323" y="462"/>
      <point x="323" y="496"/>
      <point x="277" y="494" type="curve" smooth="yes"/>
      <point x="235" y="492" type="line"/>
      <point x="251" y="470"/>
      <point x="262" y="450"/>
      <point x="250" y="429" type="curve" smooth="yes"/>
      <point x="114" y="185" type="line" smooth="yes"/>
      <point x="80" y="124"/>
      <point x="83" y="65"/>
    </contour>
  </outline>
</glyph>
<glyph name="oe" format="2">
  <advance width="664"/>
  <unicode hex="0153"/>
  <note>
oe
</note>
  <anchor x="552" y="512" name="top"/>
  <outline>
    <contour>
      <point x="356" y="40" type="curve"/>
      <point x="385" y="64" type="line"/>
      <point x="395" y="73"/>
      <point x="404" y="82"/>
      <point x="413" y="92" type="curve"/>
      <point x="413" y="137" type="line"/>
      <point x="401" y="119"/>
      <point x="390" y="103"/>
      <point x="380" y="98" type="curve"/>
      <point x="330" y="53" type="line"/>
      <point x="301" y="31"/>
      <point x="276" y="19"/>
      <point x="253" y="19" type="curve" smooth="yes"/>
      <point x="207" y="19"/>
      <point x="170" y="39"/>
      <point x="163" y="90" type="curve" smooth="yes"/>
      <point x="156" y="142"/>
      <point x="174" y="197"/>
      <point x="210" y="270" type="curve" smooth="yes"/>
      <point x="269" y="397"/>
      <point x="382" y="482"/>
      <point x="448" y="482" type="curve" smooth="yes"/>
      <point x="486" y="482"/>
      <point x="510" y="451"/>
      <point x="510" y="401" type="curve" smooth="yes"/>
      <point x="510" y="400"/>
      <point x="510" y="399"/>
      <point x="510" y="397" type="curve"/>
      <point x="544" y="427" type="line"/>
      <point x="533" y="490"/>
      <point x="497" y="523"/>
      <point x="436" y="523" type="curve" smooth="yes"/>
      <point x="336" y="523"/>
      <point x="209" y="408"/>
      <point x="148" y="266" type="curve" smooth="yes"/>
      <point x="125" y="217"/>
      <point x="114" y="171"/>
      <point x="114" y="129" type="curve" smooth="yes"/>
      <point x="114" y="35"/>
      <point x="151" y="-13"/>
      <point x="225" y="-13" type="curve" smooth="yes"/>
      <point x="265" y="-13"/>
      <point x="309" y="4"/>
    </contour>
    <component base="e" xOffset="280" yOffset="-5"/>
  </outline>
</glyph>
<glyph name="apostrophe" format="2">
  <advance width="193"/>
  <unicode hex="02BC"/>
  <note>
apostrophe
</note>
  <outline>
    <contour>
      <point x="85" y="490" type="line"/>
      <point x="100" y="490" type="line"/>
      <point x="134" y="620"/>
      <point x="151" y="701"/>
      <point x="151" y="736" type="curve" smooth="yes"/>
      <point x="151" y="770"/>
      <point x="140" y="787"/>
      <point x="117" y="787" type="curve" smooth="yes"/>
      <point x="91" y="787"/>
      <point x="70" y="763"/>
      <point x="72" y="737" type="curve" smooth="yes"/>
    </contour>
  </outline>
</glyph>
<glyph name="ring" format="2">
  <advance width="312"/>
  <unicode hex="02DA"/>
  <note>
ring
</note>
  <anchor x="161" y="515" name="_top"/>
  <outline>
    <contour>
      <point x="237" y="621" type="curve" smooth="yes"/>
      <point x="280" y="654"/>
      <point x="282" y="707"/>
      <point x="246" y="735" type="curve" smooth="yes"/>
      <point x="227" y="752"/>
      <point x="186" y="762"/>
      <point x="144" y="749" type="curve" smooth="yes"/>
      <point x="87" y="731"/>
      <point x="71" y="689"/>
      <point x="71" y="663" type="curve" smooth="yes"/>
      <point x="71" y="600"/>
      <point x="165" y="567"/>
    </contour>
    <contour>
      <point x="165" y="620" type="curve" smooth="yes"/>
      <point x="106" y="620"/>
      <point x="110" y="727"/>
      <point x="174" y="732" type="curve" smooth="yes"/>
      <point x="200" y="734"/>
      <point x="218" y="710"/>
      <point x="216" y="678" type="curve" smooth="yes"/>
      <point x="212" y="646"/>
      <point x="191" y="620"/>
    </contour>
  </outline>
</glyph>
<glyph name="tilde" format="2">
  <advance width="485"/>
  <unicode hex="02DC"/>
  <note>
tilde
</note>
  <anchor x="264" y="512" name="_top"/>
  <outline>
    <contour>
      <point x="357" y="650" type="curve" smooth="yes"/>
      <point x="403" y="650"/>
      <point x="442" y="684"/>
      <point x="474" y="751" type="curve"/>
      <point x="471" y="754" type="line"/>
      <point x="465" y="756"/>
      <point x="460" y="757"/>
      <point x="456" y="757" type="curve" smooth="yes"/>
      <point x="452" y="757"/>
      <point x="450" y="755"/>
      <point x="449" y="752" type="curve" smooth="yes"/>
      <point x="433" y="723"/>
      <point x="414" y="693"/>
      <point x="392" y="693" type="curve" smooth="yes"/>
      <point x="370" y="693"/>
      <point x="340" y="701"/>
      <point x="302" y="717" type="curve" smooth="yes"/>
      <point x="267" y="731"/>
      <point x="239" y="738"/>
      <point x="218" y="738" type="curve" smooth="yes"/>
      <point x="175" y="738"/>
      <point x="136" y="723"/>
      <point x="101" y="661" type="curve"/>
      <point x="107" y="656" type="line"/>
      <point x="121" y="651"/>
      <point x="129" y="652"/>
      <point x="131" y="658" type="curve"/>
      <point x="145" y="685"/>
      <point x="163" y="698"/>
      <point x="185" y="698" type="curve" smooth="yes"/>
      <point x="207" y="698"/>
      <point x="237" y="690"/>
      <point x="275" y="673" type="curve" smooth="yes"/>
      <point x="310" y="658"/>
      <point x="337" y="650"/>
    </contour>
  </outline>
</glyph>
<glyph name="hungarumlaut" format="2">
  <advance width="267"/>
  <unicode hex="02DD"/>
  <note>
hungarumlaut
</note>
  <outline>
    <contour>
      <point x="207" y="455" type="curve" smooth="yes"/>
      <point x="222" y="455"/>
      <point x="312" y="656"/>
      <point x="304" y="674" type="curve" smooth="yes"/>
      <point x="300" y="686"/>
      <point x="297" y="690"/>
      <point x="289" y="690" type="curve" smooth="yes"/>
      <point x="283" y="690"/>
      <point x="277" y="690"/>
      <point x="274" y="689" type="curve" smooth="yes"/>
      <point x="250" y="683"/>
      <point x="236" y="664"/>
      <point x="232" y="633" type="curve" smooth="yes"/>
      <point x="222" y="579"/>
      <point x="145" y="455"/>
    </contour>
    <contour>
      <point x="36" y="455" type="curve" smooth="yes"/>
      <point x="43" y="455"/>
      <point x="140" y="655"/>
      <point x="132" y="675" type="curve" smooth="yes"/>
      <point x="128" y="685"/>
      <point x="122" y="690"/>
      <point x="115" y="690" type="curve" smooth="yes"/>
      <point x="108" y="690"/>
      <point x="103" y="690"/>
      <point x="99" y="689" type="curve" smooth="yes"/>
      <point x="76" y="683"/>
      <point x="61" y="665"/>
      <point x="55" y="633" type="curve" smooth="yes"/>
      <point x="25" y="467" type="line"/>
      <point x="25" y="459"/>
      <point x="29" y="455"/>
    </contour>
  </outline>
</glyph>
<glyph name="two-ethiopic" format="2">
  <advance width="826"/>
  <unicode hex="136A"/>
  <outline>
    <contour>
      <point x="168" y="47" type="curve"/>
      <point x="202" y="23" type="line"/>
      <point x="210" y="36"/>
      <point x="219" y="51"/>
      <point x="228" y="66" type="curve" smooth="yes"/>
      <point x="312" y="208"/>
      <point x="375" y="359"/>
      <point x="476" y="545" type="curve" smooth="yes"/>
      <point x="484" y="559"/>
      <point x="499" y="576"/>
      <point x="506" y="590" type="curve"/>
      <point x="461" y="571" type="line"/>
      <point x="451" y="553"/>
      <point x="438" y="535"/>
      <point x="428" y="516" type="curve" smooth="yes"/>
      <point x="327" y="330" type="line" smooth="yes"/>
      <point x="260" y="206"/>
      <point x="214" y="127"/>
    </contour>
    <component base="_number.bars" xOffset="157"/>
    <component base="three" xOffset="237"/>
  </outline>
</glyph>
<glyph name="three-ethiopic" format="2">
  <advance width="826"/>
  <unicode hex="136B"/>
  <outline>
    <contour>
      <point x="418" y="345" type="curve"/>
      <point x="432" y="372" type="line"/>
      <point x="569" y="629" type="line"/>
      <point x="682" y="622" type="line" smooth="yes"/>
      <point x="750" y="618"/>
      <point x="830" y="628"/>
      <point x="857" y="700" type="curve"/>
      <point x="852" y="703" type="line"/>
      <point x="802" y="664"/>
      <point x="725" y="674"/>
      <point x="677" y="681" type="curve" smooth="yes"/>
      <point x="641" y="686"/>
      <point x="603" y="699"/>
      <point x="563" y="686" type="curve"/>
      <point x="558" y="667"/>
      <point x="395" y="372"/>
      <point x="384" y="340" type="curve"/>
      <point x="384" y="333" type="line"/>
      <point x="391" y="331" type="line"/>
      <point x="400" y="336"/>
      <point x="408" y="340"/>
    </contour>
    <contour>
      <point x="192" y="0" type="line"/>
      <point x="230" y="3"/>
      <point x="253" y="6"/>
      <point x="257" y="8" type="curve"/>
      <point x="622" y="694" type="line"/>
      <point x="563" y="696" type="line"/>
      <point x="522" y="621" type="line"/>
      <point x="197" y="9" type="line"/>
    </contour>
    <component base="_number.bars" xOffset="157"/>
  </outline>
</glyph>
<glyph name="forty-ethiopic" format="2">
  <advance width="826"/>
  <unicode hex="1375"/>
  <outline>
    <contour>
      <point x="442" y="0" type="line"/>
      <point x="480" y="3"/>
      <point x="500" y="0"/>
      <point x="507" y="8" type="curve"/>
      <point x="872" y="694" type="line"/>
      <point x="805" y="697" type="line"/>
      <point x="772" y="621" type="line"/>
      <point x="447" y="9" type="line"/>
    </contour>
    <contour>
      <point x="271" y="353" type="line"/>
      <point x="328" y="347" type="line"/>
      <point x="512" y="694" type="line"/>
      <point x="445" y="697" type="line"/>
      <point x="412" y="621" type="line"/>
    </contour>
    <contour>
      <point x="634" y="697" type="line"/>
      <point x="613" y="661" type="line"/>
      <point x="622" y="661" type="line"/>
      <point x="447" y="331" type="line"/>
      <point x="496" y="326" type="line"/>
      <point x="692" y="694" type="line"/>
    </contour>
    <contour>
      <point x="257" y="324" type="line"/>
      <point x="640" y="324" type="line"/>
      <point x="658" y="369" type="line"/>
      <point x="280" y="369" type="line"/>
    </contour>
    <component base="_number.bars" xOffset="157"/>
    <component base="_number.bars" xOffset="157"/>
  </outline>
</glyph>
<glyph name="sixty-ethiopic" format="2">
  <advance width="826"/>
  <unicode hex="1377"/>
  <outline>
    <contour>
      <point x="314" y="344" type="line"/>
      <point x="515" y="344" type="line"/>
      <point x="533" y="389" type="line"/>
      <point x="333" y="389" type="line"/>
    </contour>
    <component base="_number.bars" xOffset="157"/>
    <component base="one" xOffset="157"/>
    <component base="grave" xScale="0.83867" xyScale="0.54464" yxScale="-0.54464" yScale="0.83867" xOffset="643" yOffset="-598"/>
  </outline>
</glyph>
<glyph name="hundred-ethiopic" format="2">
  <advance width="826"/>
  <unicode hex="137B"/>
  <outline>
    <contour>
      <point x="145" y="-8" type="curve"/>
      <point x="186" y="4"/>
      <point x="208" y="-9"/>
      <point x="214" y="4" type="curve" smooth="yes"/>
      <point x="232" y="44"/>
      <point x="213" y="92"/>
      <point x="215" y="114" type="curve" smooth="yes"/>
      <point x="221" y="171"/>
      <point x="245" y="220"/>
      <point x="264" y="271" type="curve" smooth="yes"/>
      <point x="324" y="425"/>
      <point x="415" y="560"/>
      <point x="539" y="629" type="curve" smooth="yes"/>
      <point x="578" y="650"/>
      <point x="655" y="668"/>
      <point x="682" y="600" type="curve" smooth="yes"/>
      <point x="707" y="534"/>
      <point x="635" y="328"/>
      <point x="486" y="269" type="curve" smooth="yes"/>
      <point x="444" y="253"/>
      <point x="407" y="270"/>
      <point x="395" y="308" type="curve" smooth="yes"/>
      <point x="377" y="369"/>
      <point x="428" y="447"/>
      <point x="515" y="529" type="curve"/>
      <point x="516" y="535" type="line"/>
      <point x="510" y="547" type="line"/>
      <point x="504" y="546" type="line"/>
      <point x="415" y="466"/>
      <point x="334" y="339"/>
      <point x="368" y="251" type="curve" smooth="yes"/>
      <point x="387" y="202"/>
      <point x="454" y="192"/>
      <point x="505" y="212" type="curve" smooth="yes"/>
      <point x="635" y="262"/>
      <point x="746" y="502"/>
      <point x="698" y="628" type="curve" smooth="yes"/>
      <point x="670" y="699"/>
      <point x="597" y="717"/>
      <point x="511" y="682" type="curve" smooth="yes"/>
      <point x="425" y="647"/>
      <point x="330" y="544"/>
      <point x="270" y="420" type="curve" smooth="yes"/>
      <point x="218" y="315"/>
      <point x="171" y="215"/>
      <point x="154" y="115" type="curve" smooth="yes"/>
      <point x="146" y="68"/>
      <point x="158" y="35"/>
    </contour>
    <component base="_number.bars" xOffset="157"/>
  </outline>
</glyph>
<glyph name="quotedblright" format="2">
  <advance width="393"/>
  <unicode hex="201D"/>
  <note>
quotedblright
</note>
  <outline>
    <contour>
      <point x="292" y="588" type="curve" smooth="yes"/>
      <point x="368" y="613"/>
      <point x="437" y="670"/>
      <point x="437" y="754" type="curve" smooth="yes"/>
      <point x="437" y="846"/>
      <point x="320" y="861"/>
      <point x="309" y="772" type="curve" smooth="yes"/>
      <point x="301" y="724"/>
      <point x="352" y="694"/>
      <point x="398" y="728" type="curve"/>
      <point x="390" y="667"/>
      <point x="346" y="622"/>
      <point x="289" y="603" type="curve" smooth="yes"/>
      <point x="271" y="598"/>
      <point x="273" y="580"/>
    </contour>
    <contour>
      <point x="122" y="588" type="curve" smooth="yes"/>
      <point x="199" y="613"/>
      <point x="266" y="670"/>
      <point x="266" y="754" type="curve" smooth="yes"/>
      <point x="266" y="846"/>
      <point x="150" y="861"/>
      <point x="140" y="772" type="curve" smooth="yes"/>
      <point x="131" y="724"/>
      <point x="182" y="694"/>
      <point x="228" y="728" type="curve"/>
      <point x="221" y="667"/>
      <point x="177" y="622"/>
      <point x="120" y="603" type="curve" smooth="yes"/>
      <point x="102" y="597"/>
      <point x="103" y="580"/>
    </contour>
  </outline>
</glyph>
<glyph name="quotedblbase" format="2">
  <advance width="245"/>
  <unicode hex="201E"/>
  <note>
quotedblbase
</note>
  <outline>
    <contour>
      <point x="199" y="66" type="line"/>
      <point x="214" y="66" type="line"/>
      <point x="216" y="72"/>
      <point x="264" y="248"/>
      <point x="264" y="307" type="curve" smooth="yes"/>
      <point x="264" y="335"/>
      <point x="253" y="349"/>
      <point x="230" y="349" type="curve" smooth="yes"/>
      <point x="203" y="349"/>
      <point x="186" y="330"/>
      <point x="188" y="303" type="curve" smooth="yes"/>
    </contour>
    <contour>
      <point x="45" y="66" type="line"/>
      <point x="59" y="66" type="line"/>
      <point x="92" y="190"/>
      <point x="108" y="267"/>
      <point x="108" y="300" type="curve" smooth="yes"/>
      <point x="108" y="333"/>
      <point x="98" y="349"/>
      <point x="76" y="349" type="curve" smooth="yes"/>
      <point x="51" y="349"/>
      <point x="31" y="326"/>
      <point x="33" y="301" type="curve" smooth="yes"/>
    </contour>
  </outline>
</glyph>
<glyph name="two.inferior" format="2">
  <advance width="390"/>
  <unicode hex="2082"/>
  <note>
two.inferior
</note>
  <outline>
    <contour>
      <point x="190" y="-14" type="curve" smooth="yes"/>
      <point x="229" y="-14"/>
      <point x="279" y="24"/>
      <point x="342" y="100" type="curve"/>
      <point x="342" y="104" type="line"/>
      <point x="334" y="110" type="line"/>
      <point x="323" y="107"/>
      <point x="302" y="80"/>
      <point x="274" y="56" type="curve" smooth="yes"/>
      <point x="262" y="46"/>
      <point x="228" y="16"/>
      <point x="213" y="16" type="curve" smooth="yes"/>
      <point x="198" y="16"/>
      <point x="165" y="29"/>
      <point x="91" y="65" type="curve"/>
      <point x="94" y="68"/>
      <point x="303" y="267"/>
      <point x="382" y="359" type="curve" smooth="yes"/>
      <point x="426" y="409"/>
      <point x="442" y="449"/>
      <point x="442" y="480" type="curve" smooth="yes"/>
      <point x="442" y="500"/>
      <point x="432" y="516"/>
      <point x="418" y="529" type="curve" smooth="yes"/>
      <point x="402" y="544"/>
      <point x="381" y="551"/>
      <point x="355" y="551" type="curve" smooth="yes"/>
      <point x="266" y="551"/>
      <point x="187" y="468"/>
      <point x="154" y="374" type="curve"/>
      <point x="155" y="368" type="line"/>
      <point x="167" y="368" type="line"/>
      <point x="171" y="372" type="line"/>
      <point x="199" y="446"/>
      <point x="263" y="521"/>
      <point x="327" y="522" type="curve" smooth="yes"/>
      <point x="370" y="523"/>
      <point x="394" y="507"/>
      <point x="394" y="479" type="curve" smooth="yes"/>
      <point x="394" y="451"/>
      <point x="387" y="411"/>
      <point x="350" y="367" type="curve" smooth="yes"/>
      <point x="285" y="288"/>
      <point x="182" y="188"/>
      <point x="61" y="76" type="curve"/>
      <point x="57" y="79"/>
      <point x="50" y="80"/>
      <point x="40" y="77" type="curve" smooth="yes"/>
      <point x="34" y="76"/>
      <point x="-38" y="4"/>
      <point x="-40" y="-2" type="curve"/>
      <point x="-27" y="-10" type="line"/>
      <point x="40" y="43" type="line"/>
      <point x="66" y="34"/>
      <point x="128" y="-14"/>
    </contour>
  </outline>
</glyph>
<glyph name="four.inferior" format="2">
  <advance width="371"/>
  <unicode hex="2084"/>
  <note>
four.inferior
</note>
  <outline>
    <contour>
      <point x="192" y="0" type="curve"/>
      <point x="232" y="0" type="line"/>
      <point x="234" y="3"/>
      <point x="249" y="34"/>
      <point x="270" y="78" type="curve" smooth="yes"/>
      <point x="285" y="106"/>
      <point x="302" y="141"/>
      <point x="325" y="186" type="curve"/>
      <point x="352" y="186" type="line"/>
      <point x="359" y="191" type="line"/>
      <point x="364" y="202" type="line"/>
      <point x="358" y="206" type="line"/>
      <point x="335" y="206" type="line"/>
      <point x="344" y="221"/>
      <point x="401" y="330"/>
      <point x="400" y="333" type="curve" smooth="yes"/>
      <point x="398" y="339" type="line"/>
      <point x="393" y="342" type="line"/>
      <point x="382" y="340"/>
      <point x="378" y="338"/>
      <point x="368" y="336" type="curve" smooth="yes"/>
      <point x="362" y="334"/>
      <point x="358" y="330"/>
      <point x="354" y="323" type="curve" smooth="yes"/>
      <point x="291" y="202" type="line"/>
      <point x="67" y="198" type="line"/>
      <point x="74" y="205"/>
      <point x="150" y="272"/>
      <point x="293" y="403" type="curve" smooth="yes"/>
      <point x="334" y="442"/>
      <point x="366" y="473"/>
      <point x="388" y="496" type="curve" smooth="yes"/>
      <point x="411" y="520"/>
      <point x="422" y="535"/>
      <point x="421" y="542" type="curve" smooth="yes"/>
      <point x="419" y="548" type="line"/>
      <point x="413" y="551" type="line"/>
      <point x="390" y="547"/>
      <point x="378" y="554"/>
      <point x="340" y="507" type="curve" smooth="yes"/>
      <point x="282" y="429"/>
      <point x="186" y="349"/>
      <point x="102" y="266" type="curve" smooth="yes"/>
      <point x="61" y="223"/>
      <point x="36" y="196"/>
      <point x="30" y="185" type="curve"/>
      <point x="30" y="177" type="line"/>
      <point x="279" y="182" type="line"/>
      <point x="257" y="142"/>
      <point x="236" y="108"/>
      <point x="222" y="80" type="curve" smooth="yes"/>
      <point x="197" y="30"/>
      <point x="192" y="14"/>
    </contour>
  </outline>
</glyph>
<glyph name="six.inferior" format="2">
  <advance width="337"/>
  <unicode hex="2086"/>
  <note>
six.inferior
</note>
  <outline>
    <contour>
      <point x="105" y="-39" type="curve" smooth="yes"/>
      <point x="173" y="-39"/>
      <point x="254" y="33"/>
      <point x="309" y="115" type="curve" smooth="yes"/>
      <point x="335" y="155"/>
      <point x="346" y="183"/>
      <point x="346" y="220" type="curve" smooth="yes"/>
      <point x="346" y="264"/>
      <point x="322" y="296"/>
      <point x="278" y="296" type="curve" smooth="yes"/>
      <point x="199" y="296"/>
      <point x="121" y="199"/>
      <point x="101" y="113" type="curve"/>
      <point x="103" y="107" type="line"/>
      <point x="113" y="108" type="line"/>
      <point x="116" y="113" type="line"/>
      <point x="138" y="166"/>
      <point x="163" y="208"/>
      <point x="195" y="237" type="curve" smooth="yes"/>
      <point x="215" y="256"/>
      <point x="235" y="268"/>
      <point x="255" y="268" type="curve" smooth="yes"/>
      <point x="278" y="268"/>
      <point x="302" y="251"/>
      <point x="303" y="222" type="curve" smooth="yes"/>
      <point x="305" y="191"/>
      <point x="302" y="168"/>
      <point x="275" y="129" type="curve" smooth="yes"/>
      <point x="224" y="58"/>
      <point x="148" y="-9"/>
      <point x="103" y="-9" type="curve" smooth="yes"/>
      <point x="60" y="-9"/>
      <point x="44" y="37"/>
      <point x="46" y="72" type="curve" smooth="yes"/>
      <point x="48" y="137"/>
      <point x="100" y="231"/>
      <point x="182" y="328" type="curve" smooth="yes"/>
      <point x="222" y="375"/>
      <point x="263" y="418"/>
      <point x="369" y="513" type="curve" smooth="yes"/>
      <point x="374" y="520"/>
      <point x="377" y="524"/>
      <point x="378" y="526" type="curve"/>
      <point x="372" y="536" type="line"/>
      <point x="366" y="536" type="line"/>
      <point x="286" y="479"/>
      <point x="207" y="412"/>
      <point x="134" y="333" type="curve" smooth="yes"/>
      <point x="53" y="248"/>
      <point x="-2" y="144"/>
      <point x="-2" y="71" type="curve" smooth="yes"/>
      <point x="-2" y="-3"/>
      <point x="36" y="-39"/>
    </contour>
  </outline>
</glyph>
<glyph name="seven.inferior" format="2">
  <advance width="390"/>
  <unicode hex="2087"/>
  <note>
seven.inferior
</note>
  <outline>
    <contour>
      <point x="-6" y="-21" type="line"/>
      <point x="76" y="-13"/>
      <point x="41" y="-15"/>
      <point x="86" y="45" type="curve" smooth="yes"/>
      <point x="170" y="157"/>
      <point x="258" y="254"/>
      <point x="346" y="347" type="curve" smooth="yes"/>
      <point x="433" y="438"/>
      <point x="486" y="494"/>
      <point x="506" y="517" type="curve"/>
      <point x="508" y="524" type="line"/>
      <point x="504" y="529" type="line"/>
      <point x="499" y="529"/>
      <point x="493" y="526"/>
      <point x="485" y="520" type="curve"/>
      <point x="433" y="526"/>
      <point x="374" y="534"/>
      <point x="322" y="530" type="curve" smooth="yes"/>
      <point x="288" y="528"/>
      <point x="257" y="520"/>
      <point x="234" y="504" type="curve" smooth="yes"/>
      <point x="214" y="489"/>
      <point x="189" y="455"/>
      <point x="162" y="401" type="curve"/>
      <point x="162" y="396" type="line"/>
      <point x="166" y="394" type="line"/>
      <point x="174" y="395"/>
      <point x="186" y="407"/>
      <point x="201" y="429" type="curve" smooth="yes"/>
      <point x="212" y="446"/>
      <point x="241" y="493"/>
      <point x="279" y="493" type="curve" smooth="yes"/>
      <point x="432" y="489" type="line"/>
      <point x="298" y="348" type="line" smooth="yes"/>
      <point x="163" y="205"/>
      <point x="105" y="135"/>
      <point x="38" y="55" type="curve" smooth="yes"/>
      <point x="-2" y="8"/>
      <point x="-11" y="-6"/>
      <point x="-13" y="-14" type="curve"/>
      <point x="-12" y="-18" type="line"/>
    </contour>
  </outline>
</glyph>
<glyph name="eight.inferior" format="2">
  <advance width="336"/>
  <unicode hex="2088"/>
  <note>
eight.inferior
</note>
  <outline>
    <contour>
      <point x="85" y="-35" type="curve" smooth="yes"/>
      <point x="179" y="-35"/>
      <point x="277" y="32"/>
      <point x="278" y="124" type="curve" smooth="yes"/>
      <point x="279" y="169"/>
      <point x="258" y="222"/>
      <point x="245" y="249" type="curve"/>
      <point x="279" y="278"/>
      <point x="324" y="308"/>
      <point x="352" y="339" type="curve" smooth="yes"/>
      <point x="386" y="378"/>
      <point x="405" y="403"/>
      <point x="406" y="460" type="curve" smooth="yes"/>
      <point x="406" y="503"/>
      <point x="368" y="530"/>
      <point x="317" y="530" type="curve" smooth="yes"/>
      <point x="234" y="530"/>
      <point x="158" y="457"/>
      <point x="155" y="374" type="curve" smooth="yes"/>
      <point x="154" y="347"/>
      <point x="167" y="314"/>
      <point x="178" y="289" type="curve"/>
      <point x="139" y="260"/>
      <point x="92" y="234"/>
      <point x="50" y="195" type="curve" smooth="yes"/>
      <point x="2" y="149"/>
      <point x="-25" y="103"/>
      <point x="-25" y="52" type="curve" smooth="yes"/>
      <point x="-25" y="2"/>
      <point x="25" y="-35"/>
    </contour>
    <contour>
      <point x="86" y="-15" type="curve" smooth="yes"/>
      <point x="43" y="-15"/>
      <point x="14" y="12"/>
      <point x="14" y="56" type="curve" smooth="yes"/>
      <point x="14" y="127"/>
      <point x="89" y="181"/>
      <point x="193" y="258" type="curve"/>
      <point x="220" y="193"/>
      <point x="232" y="163"/>
      <point x="230" y="127" type="curve" smooth="yes"/>
      <point x="227" y="55"/>
      <point x="157" y="-15"/>
    </contour>
    <contour>
      <point x="232" y="280" type="curve"/>
      <point x="200" y="344"/>
      <point x="202" y="347"/>
      <point x="203" y="374" type="curve" smooth="yes"/>
      <point x="206" y="428"/>
      <point x="261" y="510"/>
      <point x="317" y="511" type="curve" smooth="yes"/>
      <point x="350" y="512"/>
      <point x="370" y="490"/>
      <point x="370" y="457" type="curve" smooth="yes"/>
      <point x="370" y="393"/>
      <point x="294" y="332"/>
    </contour>
  </outline>
</glyph>
<glyph name="nine.inferior" format="2">
  <advance width="396"/>
  <unicode hex="2089"/>
  <note>
nine.inferior
</note>
  <outline>
    <contour>
      <point x="69" y="-41" type="line"/>
      <point x="74" y="-41" type="line"/>
      <point x="152" y="10"/>
      <point x="228" y="75"/>
      <point x="302" y="155" type="curve" smooth="yes"/>
      <point x="378" y="236"/>
      <point x="427" y="336"/>
      <point x="429" y="411" type="curve" smooth="yes"/>
      <point x="430" y="485"/>
      <point x="396" y="535"/>
      <point x="334" y="535" type="curve" smooth="yes"/>
      <point x="227" y="535"/>
      <point x="79" y="383"/>
      <point x="79" y="271" type="curve" smooth="yes"/>
      <point x="79" y="227"/>
      <point x="106" y="180"/>
      <point x="148" y="180" type="curve" smooth="yes"/>
      <point x="223" y="180"/>
      <point x="294" y="277"/>
      <point x="329" y="367" type="curve"/>
      <point x="328" y="371" type="line"/>
      <point x="318" y="372" type="line"/>
      <point x="314" y="370" type="line"/>
      <point x="277" y="281"/>
      <point x="233" y="221"/>
      <point x="182" y="217" type="curve" smooth="yes"/>
      <point x="150" y="215"/>
      <point x="127" y="238"/>
      <point x="127" y="274" type="curve" smooth="yes"/>
      <point x="129" y="402"/>
      <point x="262" y="515"/>
      <point x="318" y="515" type="curve" smooth="yes"/>
      <point x="377" y="515"/>
      <point x="386" y="451"/>
      <point x="381" y="416" type="curve" smooth="yes"/>
      <point x="359" y="255"/>
      <point x="222" y="82"/>
      <point x="68" y="-26" type="curve"/>
      <point x="64" y="-32" type="line"/>
    </contour>
  </outline>
</glyph>
<glyph name="Delta" format="2">
  <advance width="713"/>
  <unicode hex="2206"/>
  <note>
Delta
</note>
  <outline>
    <contour>
      <point x="195" y="25" type="curve" smooth="yes"/>
      <point x="644" y="25" type="line"/>
      <point x="682" y="45"/>
      <point x="701" y="70"/>
      <point x="703" y="102" type="curve"/>
      <point x="701" y="113" type="line"/>
      <point x="497" y="569" type="line"/>
      <point x="484" y="582"/>
      <point x="457" y="566"/>
      <point x="442" y="537" type="curve"/>
      <point x="437" y="533"/>
      <point x="169" y="70"/>
      <point x="167" y="64" type="curve"/>
      <point x="167" y="49"/>
      <point x="182" y="25"/>
    </contour>
    <contour>
      <point x="230" y="85" type="line"/>
      <point x="454" y="469" type="line"/>
      <point x="620" y="85" type="line"/>
    </contour>
  </outline>
</glyph>
<glyph name="summation" format="2">
  <advance width="676"/>
  <unicode hex="2211"/>
  <note>
summation
</note>
  <outline>
    <contour>
      <point x="165" y="30" type="line"/>
      <point x="670" y="30" type="line"/>
      <point x="624" y="81" type="line"/>
      <point x="284" y="75" type="line"/>
      <point x="553" y="308" type="line"/>
      <point x="368" y="522" type="line"/>
      <point x="649" y="512" type="line"/>
      <point x="687" y="563" type="line"/>
      <point x="230" y="563" type="line"/>
      <point x="466" y="294" type="line"/>
    </contour>
  </outline>
</glyph>
<glyph name="ffl" format="2">
  <advance width="829"/>
  <unicode hex="FB04"/>
  <note>
ffl
</note>
  <outline>
    <contour>
      <point x="662" y="226" type="line"/>
      <point x="672" y="260" type="line"/>
      <point x="585" y="262" type="line" smooth="yes"/>
      <point x="544" y="263"/>
      <point x="513" y="244"/>
      <point x="495" y="224" type="curve"/>
      <point x="492" y="229"/>
      <point x="488" y="233"/>
      <point x="483" y="236" type="curve"/>
      <point x="537" y="354"/>
      <point x="605" y="504"/>
      <point x="690" y="696" type="curve" smooth="yes"/>
      <point x="712" y="745"/>
      <point x="742" y="800"/>
      <point x="772" y="829" type="curve"/>
      <point x="741" y="819"/>
      <point x="723" y="829"/>
      <point x="708" y="820" type="curve" smooth="yes"/>
      <point x="687" y="808"/>
      <point x="679" y="785"/>
      <point x="662" y="755" type="curve" smooth="yes"/>
      <point x="656" y="745"/>
      <point x="648" y="727"/>
      <point x="638" y="704" type="curve" smooth="yes"/>
      <point x="592" y="599"/>
      <point x="506" y="381"/>
      <point x="445" y="232" type="curve"/>
      <point x="421" y="218"/>
      <point x="399" y="185"/>
      <point x="399" y="160" type="curve" smooth="yes"/>
      <point x="399" y="151"/>
      <point x="402" y="144"/>
      <point x="407" y="140" type="curve"/>
      <point x="397" y="118" type="line" smooth="yes"/>
      <point x="293" y="-110"/>
      <point x="287" y="-180"/>
      <point x="287" y="-222" type="curve" smooth="yes"/>
      <point x="287" y="-293"/>
      <point x="337" y="-338"/>
      <point x="411" y="-338" type="curve" smooth="yes"/>
      <point x="508" y="-338"/>
      <point x="541" y="-299"/>
      <point x="548" y="-184" type="curve" smooth="yes"/>
      <point x="553" y="-94"/>
      <point x="531" y="119"/>
      <point x="509" y="199" type="curve"/>
      <point x="502" y="197" type="line"/>
      <point x="521" y="209"/>
      <point x="548" y="228"/>
      <point x="571" y="228" type="curve" smooth="yes"/>
    </contour>
    <contour>
      <point x="323" y="-209" type="curve" smooth="yes"/>
      <point x="323" y="-135"/>
      <point x="358" y="-44"/>
      <point x="436" y="132" type="curve"/>
      <point x="448" y="133"/>
      <point x="460" y="137"/>
      <point x="472" y="145" type="curve"/>
      <point x="476" y="52"/>
      <point x="525" y="-101"/>
      <point x="518" y="-201" type="curve" smooth="yes"/>
      <point x="513" y="-276"/>
      <point x="459" y="-316"/>
      <point x="419" y="-316" type="curve" smooth="yes"/>
      <point x="383" y="-316"/>
      <point x="323" y="-288"/>
    </contour>
    <component base="f"/>
    <component base="l" xOffset="505"/>
  </outline>
</glyph>
<glyph name="_smart.aGl.cap" format="2">
  <anchor x="1" y="10" name="_aGl.cap"/>
  <outline>
    <contour>
      <point x="47" y="482"/>
      <point x="45" y="432"/>
      <point x="78" y="397" type="curve" smooth="yes"/>
      <point x="119" y="354"/>
      <point x="222" y="387"/>
      <point x="351" y="468" type="curve"/>
      <point x="224" y="274"/>
      <point x="-16.416" y="-77.88"/>
      <point x="-53" y="-148" type="curve"/>
      <point x="2" y="-122"/>
      <point x="-11" y="-124"/>
      <point x="10" y="-98" type="curve"/>
      <point x="419.175" y="497.352"/>
      <point x="446.298" y="536.956"/>
      <point x="445.492" y="558.234" type="curve" smooth="yes"/>
      <point x="445.311" y="561.137"/>
      <point x="444.831" y="563.19"/>
      <point x="444" y="565" type="curve" smooth="yes"/>
      <point x="427" y="601"/>
      <point x="427" y="579"/>
      <point x="376" y="536" type="curve"/>
      <point x="285" y="452"/>
      <point x="140" y="380"/>
      <point x="99" y="435" type="curve" smooth="yes"/>
      <point x="76" y="466"/>
      <point x="146" y="683"/>
      <point x="189" y="646" type="curve" smooth="yes"/>
      <point x="215" y="621"/>
      <point x="242" y="677"/>
      <point x="210" y="700" type="curve" smooth="yes"/>
      <point x="173" y="728"/>
      <point x="107" y="649"/>
      <point x="80" y="575" type="curve" smooth="yes"/>
    </contour>
  </outline>
</glyph>
<glyph name="_smart.fa.arm" format="2">
  <anchor x="-7" y="67" name="_fa.arm"/>
  <outline>
    <contour>
      <point x="10" y="59" type="line"/>
      <point x="121" y="277" type="line"/>
      <point x="89" y="293" type="line"/>
      <point x="-22" y="75" type="line"/>
    </contour>
    <contour>
      <point x="3" y="256" type="line"/>
      <point x="109" y="256" type="line"/>
      <point x="130" y="295" type="line"/>
      <point x="3" y="295" type="line"/>
    </contour>
  </outline>
</glyph>
<glyph name="_smart.go" format="2">
  <anchor x="1" y="745" name="_go"/>
  <outline>
    <contour>
      <point x="81" y="771" type="curve" smooth="yes"/>
      <point x="124" y="804"/>
      <point x="126" y="857"/>
      <point x="90" y="885" type="curve" smooth="yes"/>
      <point x="71" y="902"/>
      <point x="30" y="912"/>
      <point x="-12" y="899" type="curve" smooth="yes"/>
      <point x="-69" y="881"/>
      <point x="-85" y="839"/>
      <point x="-85" y="813" type="curve" smooth="yes"/>
      <point x="-85" y="750"/>
      <point x="9" y="717"/>
    </contour>
    <contour>
      <point x="9" y="770" type="curve" smooth="yes"/>
      <point x="-50" y="770"/>
      <point x="-46" y="877"/>
      <point x="18" y="882" type="curve" smooth="yes"/>
      <point x="44" y="884"/>
      <point x="62" y="860"/>
      <point x="60" y="828" type="curve" smooth="yes"/>
      <point x="56" y="796"/>
      <point x="35" y="770"/>
    </contour>
  </outline>
</glyph>
<glyph name="_smart.gwa" format="2">
  <anchor x="-1" y="443" name="_gwa"/>
  <anchor x="-170" y="964" name="_he"/>
  <outline>
    <contour>
      <point x="122" y="272" type="curve" smooth="yes"/>
      <point x="137" y="219"/>
      <point x="167" y="317"/>
      <point x="158" y="368" type="curve" smooth="yes"/>
      <point x="147" y="430"/>
      <point x="110" y="455"/>
      <point x="67" y="455" type="curve" smooth="yes"/>
      <point x="47" y="455"/>
      <point x="19" y="448"/>
      <point x="-16" y="433" type="curve" smooth="yes"/>
      <point x="-53" y="416"/>
      <point x="-83" y="407"/>
      <point x="-106" y="407" type="curve" smooth="yes"/>
      <point x="-128" y="407"/>
      <point x="-146" y="421"/>
      <point x="-160" y="448" type="curve"/>
      <point x="-161" y="454"/>
      <point x="-170" y="454"/>
      <point x="-184" y="449" type="curve"/>
      <point x="-190" y="445" type="line"/>
      <point x="-155" y="383"/>
      <point x="-116" y="377"/>
      <point x="-73" y="377" type="curve" smooth="yes"/>
      <point x="-52" y="377"/>
      <point x="-23" y="384"/>
      <point x="11" y="398" type="curve" smooth="yes"/>
      <point x="49" y="414"/>
      <point x="98" y="444"/>
      <point x="101" y="422" type="curve" smooth="yes"/>
      <point x="104" y="397" type="line"/>
      <point x="109" y="362"/>
      <point x="116" y="293"/>
    </contour>
  </outline>
</glyph>
<glyph name="_smart.he.aGl" format="2">
  <anchor x="1" y="536" name="_he.aGl"/>
  <outline>
    <contour>
      <point x="-23" y="534" type="curve" smooth="yes"/>
      <point x="-6" y="548"/>
      <point x="117" y="789"/>
      <point x="110" y="814" type="curve" smooth="yes"/>
      <point x="104" y="844"/>
      <point x="92" y="830"/>
      <point x="56" y="804" type="curve" smooth="yes"/>
      <point x="34" y="786"/>
      <point x="29" y="749"/>
      <point x="-30" y="557" type="curve" smooth="yes"/>
      <point x="-41" y="519"/>
      <point x="-27" y="530"/>
    </contour>
  </outline>
</glyph>
<glyph name="_smart.hee" format="2">
  <anchor x="41" y="521" name="_hee"/>
  <outline>
    <contour>
      <point x="76" y="537" type="curve" smooth="yes"/>
      <point x="122" y="575"/>
      <point x="125" y="632"/>
      <point x="85" y="663" type="curve" smooth="yes"/>
      <point x="64" y="681"/>
      <point x="19" y="693"/>
      <point x="-28" y="678" type="curve" smooth="yes"/>
      <point x="-91" y="659"/>
      <point x="-109" y="612"/>
      <point x="-109" y="584" type="curve" smooth="yes"/>
      <point x="-109" y="515"/>
      <point x="-4" y="477"/>
    </contour>
    <contour>
      <point x="-5" y="519" type="curve" smooth="yes"/>
      <point x="-91" y="519"/>
      <point x="-83" y="671"/>
      <point x="7" y="677" type="curve" smooth="yes"/>
      <point x="43" y="680"/>
      <point x="68" y="645"/>
      <point x="67" y="602" type="curve" smooth="yes"/>
      <point x="61" y="557"/>
      <point x="31" y="519"/>
    </contour>
  </outline>
</glyph>
<glyph name="_smart.hi" format="2">
  <anchor x="-26" y="624" name="_hi"/>
  <outline>
    <contour>
      <point x="121" y="495" type="line"/>
      <point x="126" y="534" type="line"/>
      <point x="1" y="534" type="line" smooth="yes"/>
      <point x="-13" y="534"/>
      <point x="-14" y="549"/>
      <point x="-8" y="561" type="curve" smooth="yes"/>
      <point x="26" y="633" type="line"/>
      <point x="-14" y="650" type="line"/>
      <point x="-60" y="547" type="line" smooth="yes"/>
      <point x="-72" y="520"/>
      <point x="-72" y="495"/>
      <point x="-45" y="495" type="curve" smooth="yes"/>
    </contour>
  </outline>
</glyph>
<glyph name="_smart.ho" format="2">
  <anchor x="24" y="711" name="_ho"/>
  <outline>
    <contour>
      <point x="-93" y="466" type="line"/>
      <point x="-1" y="693" type="line"/>
      <point x="-34" y="706" type="line"/>
      <point x="-126" y="479" type="line"/>
    </contour>
  </outline>
</glyph>
<glyph name="_smart.ye" format="2">
  <advance width="242"/>
  <anchor x="22" y="25" name="_ye"/>
  <outline>
    <contour>
      <point x="170" y="-100" type="curve" smooth="yes"/>
      <point x="179" y="-97"/>
      <point x="180" y="-91"/>
      <point x="182" y="-86" type="curve" smooth="yes"/>
      <point x="268" y="79" type="line"/>
      <point x="275" y="96"/>
      <point x="244" y="79"/>
      <point x="237" y="69" type="curve" smooth="yes"/>
      <point x="142" y="-63" type="line"/>
      <point x="-100" y="-15" type="line" smooth="yes"/>
      <point x="-152" y="-5"/>
      <point x="-159" y="-20"/>
      <point x="-136" y="-26" type="curve" smooth="yes"/>
      <point x="127" y="-105" type="line" smooth="yes"/>
      <point x="144" y="-110"/>
      <point x="161" y="-102"/>
    </contour>
  </outline>
</glyph>
<glyph name="aGl.base.cap" format="2">
  <advance width="1195"/>
  <anchor x="836.899" y="308.989" name="_aGl.cap"/>
  <anchor x="1062" y="-47" name="haa"/>
  <anchor x="798" y="894" name="hat"/>
  <anchor x="685" y="788" name="he.acute"/>
  <anchor x="1099" y="-232" name="hee"/>
  <anchor x="1043" y="-106" name="hi"/>
  <anchor x="653" y="-120" name="ho"/>
  <anchor x="1180" y="418" name="ho.ring"/>
  <anchor x="1133" y="272" name="hu"/>
  <anchor x="1098" y="-44" name="hwa"/>
  <anchor x="727" y="-46" name="ring"/>
  <outline>
    <contour>
      <point x="1078" y="456" type="curve"/>
      <point x="1110" y="482" type="line"/>
      <point x="1094" y="483"/>
      <point x="1080" y="484"/>
      <point x="1068" y="485" type="curve" smooth="yes"/>
      <point x="989.347" y="490.722" type="line"/>
      <point x="1007.462" y="539.621"/>
      <point x="1024" y="577"/>
      <point x="1034" y="605" type="curve" smooth="yes"/>
      <point x="1126" y="861"/>
      <point x="1135" y="889"/>
      <point x="1131" y="905" type="curve"/>
      <point x="1128" y="911" type="line"/>
      <point x="1104" y="943"/>
      <point x="1108" y="921"/>
      <point x="1067" y="868" type="curve" smooth="yes"/>
      <point x="1037" y="825"/>
      <point x="989" y="780"/>
      <point x="944" y="741" type="curve" smooth="yes"/>
      <point x="883" y="688"/>
      <point x="824" y="649"/>
      <point x="794" y="675" type="curve" smooth="yes"/>
      <point x="765" y="701"/>
      <point x="789" y="927"/>
      <point x="839" y="900" type="curve"/>
      <point x="869" y="881"/>
      <point x="884" y="942"/>
      <point x="848" y="957" type="curve" smooth="yes"/>
      <point x="806" y="977"/>
      <point x="758" y="886"/>
      <point x="747" y="808" type="curve" smooth="yes"/>
      <point x="734" y="710"/>
      <point x="742" y="661"/>
      <point x="782" y="634" type="curve" smooth="yes"/>
      <point x="813" y="612"/>
      <point x="884" y="655"/>
      <point x="959" y="717" type="curve" smooth="yes"/>
      <point x="1001" y="751"/>
      <point x="1045" y="792"/>
      <point x="1084" y="830" type="curve"/>
      <point x="1048.841" y="739.59"/>
      <point x="1000.016" y="617.821"/>
      <point x="953.586" y="501.21" type="curve" smooth="yes"/>
      <point x="952.378" y="498.457"/>
      <point x="951.174" y="495.705"/>
      <point x="949.975" y="492.953" type="curve"/>
      <point x="925" y="494"/>
      <point x="883" y="466"/>
      <point x="883" y="443" type="curve" smooth="yes"/>
      <point x="883" y="429.026"/>
      <point x="903.991" y="443.854"/>
      <point x="933.012" y="453.376" type="curve"/>
      <point x="921.544" y="426.157"/>
      <point x="910.526" y="399.017"/>
      <point x="900" y="372" type="curve" smooth="yes"/>
      <point x="833" y="202"/>
      <point x="711" y="36"/>
      <point x="570" y="-51" type="curve" smooth="yes"/>
      <point x="493" y="-98"/>
      <point x="411" y="-108"/>
      <point x="332" y="-108" type="curve" smooth="yes"/>
      <point x="191" y="-108"/>
      <point x="55" y="-41"/>
      <point x="52" y="103" type="curve" smooth="yes"/>
      <point x="50" y="189"/>
      <point x="100" y="274"/>
      <point x="156" y="298" type="curve" smooth="yes"/>
      <point x="172" y="304"/>
      <point x="168" y="316"/>
      <point x="154" y="312" type="curve" smooth="yes"/>
      <point x="73" y="287"/>
      <point x="20" y="195"/>
      <point x="20" y="99" type="curve" smooth="yes"/>
      <point x="20" y="-88"/>
      <point x="206" y="-171"/>
      <point x="357" y="-171" type="curve" smooth="yes"/>
      <point x="441" y="-171"/>
      <point x="521" y="-150"/>
      <point x="597" y="-108" type="curve" smooth="yes"/>
      <point x="761" y="-15"/>
      <point x="875" y="167"/>
      <point x="947" y="372" type="curve" smooth="yes"/>
      <point x="978.034" y="459.845" type="line"/>
      <point x="1026" y="458" type="line" smooth="yes"/>
      <point x="1044" y="457"/>
      <point x="1061" y="457"/>
    </contour>
    <component base="_part.right.support" xOffset="-30"/>
  </outline>
</glyph>
<glyph name="fa.base" format="2">
  <advance width="390"/>
  <anchor x="247" y="17" name="haa"/>
  <anchor x="234" y="-12" name="haa.acute"/>
  <anchor x="429" y="879" name="hat"/>
  <anchor x="357" y="55" name="hee"/>
  <anchor x="259" y="213" name="hi"/>
  <anchor x="152" y="-57" name="hu"/>
  <anchor x="353" y="42" name="raa.helper"/>
  <anchor x="311" y="46" name="ri.helper"/>
  <outline>
    <contour>
      <point x="237" y="33" type="curve" smooth="yes"/>
      <point x="238" y="39"/>
      <point x="248" y="173"/>
      <point x="232" y="209" type="curve" smooth="yes"/>
      <point x="218" y="241"/>
      <point x="187" y="244"/>
      <point x="172" y="241" type="curve" smooth="yes"/>
      <point x="152" y="237"/>
      <point x="123" y="211"/>
      <point x="117" y="189" type="curve" smooth="yes"/>
      <point x="114" y="179"/>
      <point x="178" y="237"/>
      <point x="203" y="193" type="curve" smooth="yes"/>
      <point x="214" y="173"/>
      <point x="204" y="76"/>
      <point x="195" y="40" type="curve"/>
      <point x="203" y="23"/>
      <point x="237" y="30"/>
    </contour>
    <contour>
      <point x="42" y="141"/>
      <point x="35" y="102"/>
      <point x="48" y="70" type="curve" smooth="yes"/>
      <point x="68" y="18"/>
      <point x="142" y="-12"/>
      <point x="244" y="-4" type="curve" smooth="yes"/>
      <point x="297" y="0"/>
      <point x="347" y="15"/>
      <point x="371" y="24" type="curve" smooth="yes"/>
      <point x="384" y="29"/>
      <point x="392" y="34"/>
      <point x="390" y="49" type="curve" smooth="yes"/>
      <point x="389" y="58"/>
      <point x="380" y="60"/>
      <point x="370" y="57" type="curve" smooth="yes"/>
      <point x="344" y="49"/>
      <point x="271" y="29"/>
      <point x="241" y="26" type="curve" smooth="yes"/>
      <point x="137" y="19"/>
      <point x="103" y="49"/>
      <point x="99" y="86" type="curve" smooth="yes"/>
      <point x="95" y="118"/>
      <point x="114" y="155"/>
      <point x="127" y="173" type="curve" smooth="yes"/>
      <point x="303" y="425" type="line" smooth="yes"/>
      <point x="327" y="459"/>
      <point x="323" y="496"/>
      <point x="277" y="494" type="curve" smooth="yes"/>
      <point x="235" y="492" type="line"/>
      <point x="251" y="470"/>
      <point x="264" y="448"/>
      <point x="250" y="429" type="curve" smooth="yes"/>
      <point x="74" y="185" type="line" smooth="yes"/>
    </contour>
  </outline>
</glyph>
<glyph name="ga.base.cap" format="2">
  <advance width="645"/>
  <anchor x="536" y="747" name="go"/>
  <anchor x="452" y="-62" name="gwa"/>
  <anchor x="379" y="-66" name="haa.acute"/>
  <anchor x="526" y="840" name="hat"/>
  <anchor x="454" y="512" name="he"/>
  <anchor x="443" y="-244" name="hee"/>
  <anchor x="413" y="-80" name="hi"/>
  <anchor x="253" y="368" name="ho.ring"/>
  <anchor x="565" y="398" name="hu"/>
  <anchor x="445" y="671" name="neck"/>
  <outline>
    <contour>
      <point x="428" y="-41" type="curve" smooth="yes"/>
      <point x="455" y="-41"/>
      <point x="483" y="-28"/>
      <point x="510" y="-2" type="curve" smooth="yes"/>
      <point x="551" y="39"/>
      <point x="578" y="77"/>
      <point x="627" y="182" type="curve" smooth="yes"/>
      <point x="638" y="206"/>
      <point x="623" y="212"/>
      <point x="612" y="189" type="curve" smooth="yes"/>
      <point x="567" y="96"/>
      <point x="526" y="36"/>
      <point x="488" y="8" type="curve" smooth="yes"/>
      <point x="469" y="-6"/>
      <point x="451" y="-7"/>
      <point x="435" y="-1" type="curve" smooth="yes"/>
      <point x="409" y="9"/>
      <point x="406" y="39"/>
      <point x="414" y="96" type="curve" smooth="yes"/>
      <point x="424" y="164"/>
      <point x="462" y="263"/>
      <point x="503" y="372" type="curve" smooth="yes"/>
      <point x="554" y="508"/>
      <point x="616" y="639"/>
      <point x="659" y="702" type="curve"/>
      <point x="720" y="707"/>
      <point x="738" y="714"/>
      <point x="754" y="721" type="curve" smooth="yes"/>
      <point x="792" y="741"/>
      <point x="799" y="788"/>
      <point x="755" y="796" type="curve" smooth="yes"/>
      <point x="721" y="800"/>
      <point x="662" y="778"/>
      <point x="622" y="725" type="curve"/>
      <point x="535" y="722"/>
      <point x="437" y="710"/>
      <point x="345" y="686" type="curve" smooth="yes"/>
      <point x="187" y="643"/>
      <point x="49" y="562"/>
      <point x="22" y="426" type="curve" smooth="yes"/>
      <point x="6" y="348"/>
      <point x="76" y="292"/>
      <point x="124" y="285" type="curve" smooth="yes"/>
      <point x="210" y="271"/>
      <point x="318" y="334"/>
      <point x="331" y="422" type="curve" smooth="yes"/>
      <point x="333" y="441"/>
      <point x="332" y="459"/>
      <point x="325" y="477" type="curve" smooth="yes"/>
      <point x="321" y="488"/>
      <point x="314" y="489"/>
      <point x="306" y="481" type="curve" smooth="yes"/>
      <point x="304" y="479"/>
      <point x="302" y="474"/>
      <point x="303" y="472" type="curve" smooth="yes"/>
      <point x="308" y="459"/>
      <point x="312" y="447"/>
      <point x="308" y="429" type="curve" smooth="yes"/>
      <point x="295" y="373"/>
      <point x="231" y="296"/>
      <point x="145" y="308" type="curve" smooth="yes"/>
      <point x="109" y="313"/>
      <point x="69" y="356"/>
      <point x="79" y="411" type="curve" smooth="yes"/>
      <point x="108" y="572"/>
      <point x="251" y="632"/>
      <point x="363" y="664" type="curve" smooth="yes"/>
      <point x="424" y="682"/>
      <point x="504" y="692"/>
      <point x="602" y="700" type="curve"/>
      <point x="545" y="617"/>
      <point x="478" y="455"/>
      <point x="446" y="372" type="curve" smooth="yes"/>
      <point x="392" y="233"/>
      <point x="364" y="140"/>
      <point x="359" y="105" type="curve" smooth="yes"/>
      <point x="351" y="47"/>
      <point x="351" y="-41"/>
    </contour>
    <contour>
      <point x="670" y="724" type="curve"/>
      <point x="695" y="751"/>
      <point x="726" y="767"/>
      <point x="734" y="766" type="curve" smooth="yes"/>
      <point x="741" y="765"/>
      <point x="746" y="761"/>
      <point x="746" y="753" type="curve" smooth="yes"/>
      <point x="745" y="737"/>
      <point x="714" y="726"/>
    </contour>
  </outline>
</glyph>
<glyph name="ga.base" format="2">
  <advance width="416"/>
  <anchor x="322" y="-41" name="gwa"/>
  <anchor x="358" y="-23" name="haa"/>
  <anchor x="246" y="1" name="haa.acute"/>
  <anchor x="290" y="632" name="hat"/>
  <anchor x="351" y="344" name="he"/>
  <anchor x="304" y="-192" name="hee"/>
  <anchor x="231" y="-75" name="hi"/>
  <anchor x="270" y="336" name="ho.ring"/>
  <anchor x="432" y="274" name="hu"/>
  <anchor x="382" y="541" name="ne"/>
  <anchor x="281" y="470" name="neck.upright"/>
  <anchor x="472" y="22" name="raa.helper"/>
  <anchor x="441" y="54" name="ri.helper"/>
  <anchor x="268" y="504" name="top"/>
  <outline>
    <contour>
      <point x="165" y="487" type="curve"/>
      <point x="179" y="466" type="line"/>
      <point x="264" y="522"/>
      <point x="407" y="515"/>
      <point x="416" y="424" type="curve" smooth="yes"/>
      <point x="418" y="399"/>
      <point x="415" y="368"/>
      <point x="379" y="316" type="curve"/>
      <point x="267" y="156" type="line" smooth="yes"/>
      <point x="221" y="90"/>
      <point x="218" y="45"/>
      <point x="250.939" y="11.211" type="curve" smooth="yes"/>
      <point x="270" y="-8"/>
      <point x="296.467" y="-14"/>
      <point x="326" y="-14" type="curve" smooth="yes"/>
      <point x="401" y="-14"/>
      <point x="453" y="40"/>
      <point x="500" y="98" type="curve" smooth="yes"/>
      <point x="528" y="132"/>
      <point x="578" y="231"/>
      <point x="592" y="275" type="curve" smooth="yes"/>
      <point x="597" y="291"/>
      <point x="579" y="297"/>
      <point x="569" y="275" type="curve" smooth="yes"/>
      <point x="500" y="123"/>
      <point x="428" y="24"/>
      <point x="356" y="17" type="curve" smooth="yes"/>
      <point x="336" y="15"/>
      <point x="222" y="14"/>
      <point x="304" y="128" type="curve" smooth="yes"/>
      <point x="423" y="293" type="line"/>
      <point x="472" y="361"/>
      <point x="471" y="391"/>
      <point x="469" y="418" type="curve" smooth="yes"/>
      <point x="458" y="550"/>
      <point x="276" y="563"/>
    </contour>
  </outline>
</glyph>
<glyph name="haa.acute" format="2">
  <anchor x="181" y="382" name="_haa.acute"/>
  <outline>
    <contour>
      <point x="-55" y="199" type="curve" smooth="yes"/>
      <point x="-32" y="199"/>
      <point x="214" y="309"/>
      <point x="224" y="333" type="curve" smooth="yes"/>
      <point x="238" y="360"/>
      <point x="220" y="378"/>
      <point x="178" y="379" type="curve" smooth="yes"/>
      <point x="148" y="379"/>
      <point x="121" y="354"/>
      <point x="-46" y="231" type="curve" smooth="yes"/>
      <point x="-77" y="208"/>
      <point x="-61" y="199"/>
    </contour>
  </outline>
</glyph>
<glyph name="le-ethiopic.etcp" format="2">
  <advance width="1153"/>
  <anchor x="1061" y="-47" name="haa"/>
  <anchor x="1098" y="-232" name="hee"/>
  <anchor x="1082" y="-126" name="hi"/>
  <anchor x="1179" y="418" name="ho.ring"/>
  <anchor x="1132" y="272" name="hu"/>
  <anchor x="1097" y="-44" name="hwa"/>
  <anchor x="726" y="-46" name="ring"/>
  <outline>
    <contour>
      <point x="957" y="-6" type="curve" smooth="yes"/>
      <point x="1000" y="27"/>
      <point x="1002" y="80"/>
      <point x="966" y="108" type="curve" smooth="yes"/>
      <point x="947" y="125"/>
      <point x="906" y="135"/>
      <point x="864" y="122" type="curve" smooth="yes"/>
      <point x="807" y="104"/>
      <point x="791" y="62"/>
      <point x="791" y="36" type="curve" smooth="yes"/>
      <point x="791" y="-27"/>
      <point x="885" y="-60"/>
    </contour>
    <contour>
      <point x="885" y="-7" type="curve" smooth="yes"/>
      <point x="826" y="-7"/>
      <point x="830" y="100"/>
      <point x="894" y="105" type="curve" smooth="yes"/>
      <point x="920" y="107"/>
      <point x="938" y="83"/>
      <point x="936" y="51" type="curve" smooth="yes"/>
      <point x="932" y="19"/>
      <point x="911" y="-7"/>
    </contour>
    <component base="la.base.cap" xOffset="-1"/>
  </outline>
</glyph>
<glyph name="na.base.cap" format="2">
  <advance width="716"/>
  <anchor x="258" y="-27" name="fa.arm"/>
  <anchor x="383" y="-104" name="haa"/>
  <anchor x="608" y="867" name="hat"/>
  <anchor x="221" y="719" name="he"/>
  <anchor x="723" y="488" name="ho.ring"/>
  <anchor x="373" y="-101" name="hwa"/>
  <outline>
    <contour>
      <point x="389" y="-101" type="curve" smooth="yes"/>
      <point x="476" y="-101"/>
      <point x="556" y="-75"/>
      <point x="631" y="-23" type="curve" smooth="yes"/>
      <point x="706" y="29"/>
      <point x="739" y="80"/>
      <point x="790" y="183" type="curve" smooth="yes"/>
      <point x="799" y="203"/>
      <point x="786" y="210"/>
      <point x="778" y="193" type="curve" smooth="yes"/>
      <point x="727" y="89"/>
      <point x="693" y="38"/>
      <point x="614" y="-9" type="curve" smooth="yes"/>
      <point x="549" y="-48"/>
      <point x="470" y="-67"/>
      <point x="377" y="-67" type="curve" smooth="yes"/>
      <point x="320" y="-67"/>
      <point x="229" y="-47"/>
      <point x="182" y="13" type="curve" smooth="yes"/>
      <point x="159" y="42"/>
      <point x="145" y="75"/>
      <point x="140" y="112" type="curve" smooth="yes"/>
      <point x="135" y="154"/>
      <point x="135" y="191"/>
      <point x="140" y="244" type="curve" smooth="yes"/>
      <point x="145" y="301"/>
      <point x="188" y="435"/>
      <point x="219" y="481" type="curve" smooth="yes"/>
      <point x="291" y="589"/>
      <point x="351" y="650"/>
      <point x="423" y="692" type="curve" smooth="yes"/>
      <point x="480" y="725"/>
      <point x="537" y="741"/>
      <point x="594" y="741" type="curve" smooth="yes"/>
      <point x="651" y="741"/>
      <point x="700" y="732"/>
      <point x="737" y="704" type="curve" smooth="yes"/>
      <point x="803" y="655"/>
      <point x="831" y="615"/>
      <point x="817" y="557" type="curve" smooth="yes"/>
      <point x="807" y="516"/>
      <point x="765" y="492"/>
      <point x="714" y="455" type="curve" smooth="yes"/>
      <point x="697" y="443"/>
      <point x="708" y="437"/>
      <point x="729" y="449" type="curve" smooth="yes"/>
      <point x="804" y="492"/>
      <point x="845" y="542"/>
      <point x="852" y="575" type="curve" smooth="yes"/>
      <point x="862" y="620"/>
      <point x="852" y="639"/>
      <point x="839" y="658" type="curve" smooth="yes"/>
      <point x="796" y="721"/>
      <point x="734" y="765"/>
      <point x="631" y="776" type="curve" smooth="yes"/>
      <point x="612" y="778"/>
      <point x="594" y="779"/>
      <point x="577" y="779" type="curve" smooth="yes"/>
      <point x="516" y="779"/>
      <point x="458" y="767"/>
      <point x="403" y="743" type="curve" smooth="yes"/>
      <point x="331" y="712"/>
      <point x="265" y="664"/>
      <point x="215" y="593" type="curve" smooth="yes"/>
      <point x="191" y="559" type="line" smooth="yes"/>
      <point x="139" y="485"/>
      <point x="91" y="388"/>
      <point x="79" y="309" type="curve" smooth="yes"/>
      <point x="68" y="236"/>
      <point x="68" y="191"/>
      <point x="74" y="148" type="curve" smooth="yes"/>
      <point x="86" y="55"/>
      <point x="144" y="-30"/>
      <point x="240" y="-71" type="curve" smooth="yes"/>
      <point x="287" y="-91"/>
      <point x="337" y="-101"/>
    </contour>
  </outline>
</glyph>
<glyph name="nna.base" format="2">
  <advance width="370"/>
  <anchor x="314" y="-31" name="gwa"/>
  <anchor x="270" y="-15" name="haa.acute"/>
  <anchor x="266" y="587" name="hat"/>
  <anchor x="201" y="574" name="he"/>
  <anchor x="343" y="-188" name="hee"/>
  <anchor x="260" y="-45" name="hi"/>
  <anchor x="414" y="278" name="hu"/>
  <anchor x="150" y="532" name="nose.ext"/>
  <outline>
    <contour>
      <point x="315" y="-14" type="curve" smooth="yes"/>
      <point x="349" y="-14"/>
      <point x="387" y="9"/>
      <point x="425" y="55" type="curve" smooth="yes"/>
      <point x="489" y="129"/>
      <point x="511" y="182"/>
      <point x="537" y="235" type="curve" smooth="yes"/>
      <point x="550" y="261"/>
      <point x="555" y="277"/>
      <point x="557" y="281" type="curve" smooth="yes"/>
      <point x="560" y="289"/>
      <point x="548" y="305"/>
      <point x="533" y="277" type="curve" smooth="yes"/>
      <point x="450" y="110"/>
      <point x="389" y="27"/>
      <point x="347" y="27" type="curve" smooth="yes"/>
      <point x="314" y="27"/>
      <point x="309" y="65"/>
      <point x="335" y="141" type="curve" smooth="yes"/>
      <point x="347" y="176"/>
      <point x="366" y="220"/>
      <point x="387" y="264" type="curve" smooth="yes"/>
      <point x="397" y="283"/>
      <point x="406" y="302"/>
      <point x="416" y="320" type="curve" smooth="yes"/>
      <point x="446" y="378"/>
      <point x="478" y="446"/>
      <point x="464" y="468" type="curve"/>
      <point x="413" y="463"/>
      <point x="370" y="460"/>
      <point x="337" y="460" type="curve" smooth="yes"/>
      <point x="303" y="460"/>
      <point x="276" y="461"/>
      <point x="257" y="462" type="curve"/>
      <point x="314" y="515"/>
      <point x="308" y="544"/>
      <point x="311" y="589" type="curve" smooth="yes"/>
      <point x="313" y="622"/>
      <point x="312" y="663"/>
      <point x="290" y="663" type="curve" smooth="yes"/>
      <point x="267" y="663"/>
      <point x="254" y="647"/>
      <point x="248" y="616" type="curve" smooth="yes"/>
      <point x="235" y="543"/>
      <point x="219" y="474"/>
      <point x="196" y="405" type="curve" smooth="yes"/>
      <point x="163" y="306"/>
      <point x="140" y="216"/>
      <point x="83" y="137" type="curve" smooth="yes"/>
      <point x="76" y="127"/>
      <point x="80" y="103"/>
      <point x="91" y="118" type="curve" smooth="yes"/>
      <point x="165" y="218"/>
      <point x="190" y="300"/>
      <point x="214" y="372" type="curve" smooth="yes"/>
      <point x="237" y="442" type="line"/>
      <point x="322" y="440"/>
      <point x="391" y="450"/>
      <point x="397" y="415" type="curve" smooth="yes"/>
      <point x="401" y="393"/>
      <point x="363" y="325"/>
      <point x="336" y="279" type="curve" smooth="yes"/>
      <point x="284" y="193"/>
      <point x="214" y="-14"/>
    </contour>
  </outline>
</glyph>
<glyph name="nye-ethiopic.etcp" format="2">
  <advance width="753"/>
  <anchor x="681" y="747" name="go"/>
  <anchor x="597" y="-62" name="gwa"/>
  <anchor x="524" y="-66" name="haa.acute"/>
  <anchor x="671" y="840" name="hat"/>
  <anchor x="599" y="512" name="he"/>
  <anchor x="588" y="-244" name="hee"/>
  <anchor x="558" y="-80" name="hi"/>
  <anchor x="398" y="368" name="ho.ring"/>
  <anchor x="710" y="398" name="hu"/>
  <anchor x="590" y="671" name="neck"/>
  <outline>
    <contour>
      <point x="560" y="357" type="line"/>
      <point x="614" y="387" type="line"/>
      <point x="614" y="528" type="line"/>
      <point x="610" y="547"/>
      <point x="599" y="557"/>
      <point x="581" y="557" type="curve" smooth="yes"/>
      <point x="552" y="557"/>
      <point x="474" y="538"/>
      <point x="474" y="508" type="curve" smooth="yes"/>
      <point x="474" y="479"/>
      <point x="521" y="466"/>
      <point x="560" y="472" type="curve"/>
    </contour>
    <component base="ga.base.cap" xOffset="145"/>
    <component base="_smart.hat" xOffset="648" yOffset="459"/>
  </outline>
</glyph>
<glyph name="pa.base.001" format="2">
  <advance width="372"/>
  <anchor x="255" y="-40" name="gwa"/>
  <anchor x="238" y="26" name="haa"/>
  <anchor x="113" y="-11" name="haa.acute"/>
  <anchor x="280" y="649" name="hat"/>
  <anchor x="53" y="43" name="he"/>
  <anchor x="273" y="-155" name="hee"/>
  <anchor x="136" y="73" name="hi"/>
  <anchor x="93" y="364" name="ho.ring"/>
  <anchor x="307" y="304" name="hu"/>
  <anchor x="87" y="-21" name="hwa"/>
  <anchor x="315" y="541" name="ne"/>
  <anchor x="192" y="479" name="neck"/>
  <outline>
    <contour>
      <point x="107" y="-1" type="curve"/>
      <point x="163" y="-14" type="line"/>
      <point x="164" y="-10"/>
      <point x="216" y="201"/>
      <point x="237" y="266" type="curve" smooth="yes"/>
      <point x="291" y="431"/>
      <point x="250" y="331"/>
      <point x="317" y="491" type="curve"/>
      <point x="260" y="492" type="line"/>
      <point x="230" y="415"/>
      <point x="204" y="335"/>
      <point x="171" y="230" type="curve" smooth="yes"/>
      <point x="154" y="177"/>
      <point x="121" y="61"/>
    </contour>
    <contour>
      <point x="73" y="471" type="line"/>
      <point x="449" y="473" type="line"/>
      <point x="449" y="504" type="line"/>
      <point x="73" y="506" type="line"/>
    </contour>
  </outline>
</glyph>
<glyph name="pa.base.cap" format="2">
  <advance width="1130"/>
  <anchor x="719" y="-10" name="haa"/>
  <anchor x="601" y="-93" name="haa.acute"/>
  <anchor x="588" y="-265" name="hee"/>
  <anchor x="551" y="-113" name="hi"/>
  <anchor x="914" y="308" name="hu"/>
  <anchor x="605" y="-116" name="hwa"/>
  <outline>
    <contour>
      <point x="384" y="-94" type="curve" smooth="yes"/>
      <point x="487" y="-94"/>
      <point x="577" y="-73"/>
      <point x="653" y="-32" type="curve" smooth="yes"/>
      <point x="769" y="32"/>
      <point x="842" y="156"/>
      <point x="898" y="324" type="curve" smooth="yes"/>
      <point x="935" y="448"/>
      <point x="978" y="547"/>
      <point x="1025" y="622" type="curve"/>
      <point x="1095" y="592"/>
      <point x="1179" y="571"/>
      <point x="1277" y="558" type="curve" smooth="yes"/>
      <point x="1323" y="551"/>
      <point x="1390" y="564"/>
      <point x="1390" y="607" type="curve" smooth="yes"/>
      <point x="1390" y="623"/>
      <point x="1387" y="631"/>
      <point x="1380" y="631" type="curve" smooth="yes"/>
      <point x="1373" y="631"/>
      <point x="1369" y="626"/>
      <point x="1369" y="616" type="curve" smooth="yes"/>
      <point x="1369" y="596"/>
      <point x="1348" y="586"/>
      <point x="1307" y="586" type="curve" smooth="yes"/>
      <point x="1266" y="586"/>
      <point x="1165" y="603"/>
      <point x="1040" y="643" type="curve"/>
      <point x="1012" y="651" type="line"/>
      <point x="882" y="696"/>
      <point x="770" y="740"/>
      <point x="633" y="740" type="curve" smooth="yes"/>
      <point x="555" y="740"/>
      <point x="433" y="717"/>
      <point x="365" y="612" type="curve" smooth="yes"/>
      <point x="340" y="574"/>
      <point x="328" y="535"/>
      <point x="328" y="495" type="curve" smooth="yes"/>
      <point x="328" y="440"/>
      <point x="351" y="364"/>
      <point x="439" y="333" type="curve" smooth="yes"/>
      <point x="478" y="319"/>
      <point x="526" y="316"/>
      <point x="581" y="348" type="curve" smooth="yes"/>
      <point x="627" y="374"/>
      <point x="653" y="413"/>
      <point x="660" y="465" type="curve"/>
      <point x="660" y="478"/>
      <point x="651" y="482"/>
      <point x="640" y="473" type="curve"/>
      <point x="640" y="471" type="line" smooth="yes"/>
      <point x="640" y="438"/>
      <point x="598" y="374"/>
      <point x="542" y="359" type="curve" smooth="yes"/>
      <point x="508" y="349"/>
      <point x="483" y="349"/>
      <point x="449" y="358" type="curve" smooth="yes"/>
      <point x="347" y="390"/>
      <point x="359" y="517"/>
      <point x="449" y="603" type="curve" smooth="yes"/>
      <point x="508" y="660"/>
      <point x="584" y="688"/>
      <point x="678" y="688" type="curve" smooth="yes"/>
      <point x="772" y="688"/>
      <point x="878" y="669"/>
      <point x="996" y="632" type="curve"/>
      <point x="987" y="619"/>
      <point x="965" y="576"/>
      <point x="932" y="503" type="curve" smooth="yes"/>
      <point x="835" y="290"/>
      <point x="758" y="153"/>
      <point x="702" y="92" type="curve" smooth="yes"/>
      <point x="613" y="-5"/>
      <point x="500" y="-58"/>
      <point x="362" y="-58" type="curve" smooth="yes"/>
      <point x="357" y="-58" type="line" smooth="yes"/>
      <point x="281" y="-58"/>
      <point x="201" y="-31"/>
      <point x="140" y="20" type="curve" smooth="yes"/>
      <point x="83" y="65"/>
      <point x="54" y="130"/>
      <point x="54" y="214" type="curve" smooth="yes"/>
      <point x="54" y="251"/>
      <point x="63" y="284"/>
      <point x="80" y="313" type="curve" smooth="yes"/>
      <point x="109" y="363"/>
      <point x="135" y="364"/>
      <point x="162" y="392" type="curve"/>
      <point x="163" y="403"/>
      <point x="158" y="409"/>
      <point x="146" y="409" type="curve" smooth="yes"/>
      <point x="139" y="409"/>
      <point x="128" y="405"/>
      <point x="113" y="396" type="curve" smooth="yes"/>
      <point x="41" y="353"/>
      <point x="20" y="251"/>
      <point x="20" y="207" type="curve" smooth="yes"/>
      <point x="20" y="184"/>
      <point x="21" y="167"/>
      <point x="22" y="156" type="curve" smooth="yes"/>
      <point x="34" y="71"/>
      <point x="76" y="9"/>
      <point x="148" y="-32" type="curve" smooth="yes"/>
      <point x="221" y="-73"/>
      <point x="300" y="-94"/>
    </contour>
  </outline>
</glyph>
<glyph name="r.001" format="2">
  <advance width="300"/>
  <note>
r
</note>
  <outline>
    <contour>
      <point x="105" y="-1" type="line"/>
      <point x="171" y="141" type="line" smooth="yes"/>
      <point x="249" y="308"/>
      <point x="284" y="347"/>
      <point x="331" y="412" type="curve" smooth="yes"/>
      <point x="355" y="446"/>
      <point x="379" y="473"/>
      <point x="400" y="489" type="curve" smooth="yes"/>
      <point x="420" y="504"/>
      <point x="436" y="509"/>
      <point x="453" y="509" type="curve" smooth="yes"/>
      <point x="459" y="509"/>
      <point x="466" y="508"/>
      <point x="473" y="507" type="curve"/>
      <point x="487" y="548" type="line"/>
      <point x="481" y="549"/>
      <point x="475" y="550"/>
      <point x="468" y="550" type="curve" smooth="yes"/>
      <point x="453" y="550"/>
      <point x="417" y="546"/>
      <point x="379" y="518" type="curve" smooth="yes"/>
      <point x="347" y="494"/>
      <point x="314" y="448"/>
      <point x="292" y="413" type="curve" smooth="yes"/>
      <point x="262" y="365" type="line"/>
      <point x="290" y="440"/>
      <point x="310" y="555"/>
      <point x="304" y="573" type="curve" smooth="yes"/>
      <point x="300" y="585"/>
      <point x="262" y="577"/>
      <point x="244" y="594" type="curve"/>
      <point x="254" y="578"/>
      <point x="256" y="494"/>
      <point x="228" y="403" type="curve" smooth="yes"/>
      <point x="205" y="330"/>
      <point x="133" y="152"/>
      <point x="60" y="-1" type="curve"/>
    </contour>
  </outline>
</glyph>
<glyph name="ra.base" format="2">
  <advance width="390"/>
  <anchor x="198" y="-13" name="haa"/>
  <anchor x="233" y="453" name="hat"/>
  <anchor x="346" y="80" name="hee"/>
  <anchor x="197" y="165" name="hi"/>
  <anchor x="182" y="-66" name="hu"/>
  <anchor x="387" y="42" name="raa.helper"/>
  <anchor x="305" y="45" name="ri.helper"/>
  <outline>
    <contour>
      <point x="42" y="141"/>
      <point x="35" y="102"/>
      <point x="48" y="70" type="curve" smooth="yes"/>
      <point x="68" y="18"/>
      <point x="142" y="-12"/>
      <point x="244" y="-4" type="curve" smooth="yes"/>
      <point x="297" y="0"/>
      <point x="347" y="15"/>
      <point x="371" y="24" type="curve" smooth="yes"/>
      <point x="384" y="29"/>
      <point x="392" y="34"/>
      <point x="390" y="49" type="curve" smooth="yes"/>
      <point x="389" y="58"/>
      <point x="380" y="60"/>
      <point x="370" y="57" type="curve" smooth="yes"/>
      <point x="344" y="49"/>
      <point x="271" y="29"/>
      <point x="241" y="26" type="curve" smooth="yes"/>
      <point x="137" y="19"/>
      <point x="103" y="49"/>
      <point x="99" y="86" type="curve" smooth="yes"/>
      <point x="95" y="118"/>
      <point x="114" y="155"/>
      <point x="127" y="173" type="curve" smooth="yes"/>
      <point x="303" y="425" type="line" smooth="yes"/>
      <point x="327" y="459"/>
      <point x="323" y="496"/>
      <point x="277" y="494" type="curve" smooth="yes"/>
      <point x="235" y="492" type="line"/>
      <point x="251" y="470"/>
      <point x="264" y="448"/>
      <point x="250" y="429" type="curve" smooth="yes"/>
      <point x="74" y="185" type="line" smooth="yes"/>
    </contour>
  </outline>
</glyph>
<glyph name="ta.base.cap" format="2">
  <advance width="942"/>
  <anchor x="502" y="-104" name="haa.acute"/>
  <anchor x="772" y="787" name="hat"/>
  <anchor x="709" y="778" name="he.acute"/>
  <anchor x="517" y="-218" name="hee"/>
  <anchor x="461" y="-37" name="hi"/>
  <anchor x="683" y="770" name="ho.ring"/>
  <anchor x="677" y="285" name="hu"/>
  <anchor x="467" y="-73" name="hwa"/>
  <outline>
    <contour>
      <point x="542" y="-41" type="curve" smooth="yes"/>
      <point x="569" y="-41"/>
      <point x="597" y="-28"/>
      <point x="624" y="-2" type="curve" smooth="yes"/>
      <point x="665" y="39"/>
      <point x="692" y="77"/>
      <point x="741" y="182" type="curve" smooth="yes"/>
      <point x="752" y="206"/>
      <point x="737" y="212"/>
      <point x="726" y="189" type="curve" smooth="yes"/>
      <point x="681" y="96"/>
      <point x="640" y="36"/>
      <point x="602" y="8" type="curve" smooth="yes"/>
      <point x="583" y="-6"/>
      <point x="565" y="-7"/>
      <point x="549" y="-1" type="curve" smooth="yes"/>
      <point x="523" y="9"/>
      <point x="520" y="39"/>
      <point x="528" y="96" type="curve" smooth="yes"/>
      <point x="538" y="164"/>
      <point x="569" y="266"/>
      <point x="617" y="372" type="curve" smooth="yes"/>
      <point x="726" y="610" type="line"/>
      <point x="789" y="586"/>
      <point x="885" y="569"/>
      <point x="969" y="558" type="curve" smooth="yes"/>
      <point x="1015" y="551"/>
      <point x="1082" y="564"/>
      <point x="1082" y="607" type="curve" smooth="yes"/>
      <point x="1082" y="623"/>
      <point x="1079" y="631"/>
      <point x="1072" y="631" type="curve" smooth="yes"/>
      <point x="1065" y="631"/>
      <point x="1061" y="626"/>
      <point x="1061" y="616" type="curve" smooth="yes"/>
      <point x="1061" y="596"/>
      <point x="1040" y="586"/>
      <point x="999" y="586" type="curve" smooth="yes"/>
      <point x="961" y="586"/>
      <point x="853" y="610"/>
      <point x="742" y="644" type="curve"/>
      <point x="753" y="660"/>
      <point x="867" y="850"/>
      <point x="872" y="863" type="curve"/>
      <point x="801" y="841"/>
      <point x="772" y="856"/>
      <point x="763" y="836" type="curve" smooth="yes"/>
      <point x="687" y="659" type="line"/>
      <point x="566" y="701"/>
      <point x="454" y="740"/>
      <point x="325" y="740" type="curve" smooth="yes"/>
      <point x="247" y="740"/>
      <point x="125" y="717"/>
      <point x="57" y="612" type="curve" smooth="yes"/>
      <point x="32" y="574"/>
      <point x="20" y="535"/>
      <point x="20" y="495" type="curve" smooth="yes"/>
      <point x="20" y="440"/>
      <point x="43" y="364"/>
      <point x="131" y="333" type="curve" smooth="yes"/>
      <point x="170" y="319"/>
      <point x="218" y="316"/>
      <point x="273" y="348" type="curve" smooth="yes"/>
      <point x="319" y="374"/>
      <point x="345" y="413"/>
      <point x="352" y="465" type="curve"/>
      <point x="352" y="478"/>
      <point x="343" y="482"/>
      <point x="332" y="473" type="curve"/>
      <point x="332" y="471" type="line" smooth="yes"/>
      <point x="332" y="438"/>
      <point x="290" y="374"/>
      <point x="234" y="359" type="curve" smooth="yes"/>
      <point x="200" y="349"/>
      <point x="175" y="349"/>
      <point x="141" y="358" type="curve" smooth="yes"/>
      <point x="39" y="390"/>
      <point x="51" y="517"/>
      <point x="141" y="603" type="curve" smooth="yes"/>
      <point x="200" y="660"/>
      <point x="276" y="688"/>
      <point x="370" y="688" type="curve" smooth="yes"/>
      <point x="459" y="688"/>
      <point x="561" y="663"/>
      <point x="672" y="630" type="curve"/>
      <point x="521" y="275" type="line" smooth="yes"/>
      <point x="499" y="224"/>
      <point x="478" y="158"/>
      <point x="470" y="100" type="curve" smooth="yes"/>
      <point x="459" y="23"/>
      <point x="473" y="-41"/>
    </contour>
  </outline>
</glyph>
<glyph name="tsa.base.cap" format="2">
  <advance width="711"/>
  <anchor x="628" y="-167" name="haa"/>
  <anchor x="664" y="855" name="hat"/>
  <anchor x="721" y="358" name="he"/>
  <anchor x="711" y="-325" name="hee"/>
  <anchor x="417" y="-268" name="hi"/>
  <anchor x="183" y="-136" name="ho"/>
  <anchor x="666" y="-54" name="hu"/>
  <anchor x="621" y="634" name="neck"/>
  <anchor x="479" y="699" name="top"/>
  <anchor x="430" y="-324" name="tswa"/>
  <outline>
    <contour>
      <point x="439" y="-18" type="curve" smooth="yes"/>
      <point x="537" y="-18"/>
      <point x="628" y="28"/>
      <point x="711" y="121" type="curve" smooth="yes"/>
      <point x="834" y="253"/>
      <point x="874" y="411"/>
      <point x="838" y="550" type="curve" smooth="yes"/>
      <point x="797" y="719"/>
      <point x="615" y="759"/>
      <point x="441" y="732" type="curve" smooth="yes"/>
      <point x="364" y="718"/>
      <point x="306" y="683"/>
      <point x="268" y="625" type="curve" smooth="yes"/>
      <point x="224" y="558"/>
      <point x="229" y="495"/>
      <point x="258" y="438" type="curve" smooth="yes"/>
      <point x="270" y="415"/>
      <point x="284" y="423"/>
      <point x="279" y="443" type="curve" smooth="yes"/>
      <point x="265" y="501"/>
      <point x="263" y="566"/>
      <point x="298" y="624" type="curve" smooth="yes"/>
      <point x="328" y="674"/>
      <point x="376" y="703"/>
      <point x="445" y="712" type="curve" smooth="yes"/>
      <point x="562" y="729"/>
      <point x="683" y="699"/>
      <point x="754" y="593" type="curve" smooth="yes"/>
      <point x="839" y="467"/>
      <point x="808" y="293"/>
      <point x="711" y="165" type="curve" smooth="yes"/>
      <point x="649" y="85"/>
      <point x="547" y="0"/>
      <point x="434" y="0" type="curve" smooth="yes"/>
      <point x="405" y="0"/>
      <point x="380" y="10"/>
      <point x="355" y="29" type="curve"/>
      <point x="287" y="88"/>
      <point x="290" y="195"/>
      <point x="314" y="276" type="curve" smooth="yes"/>
      <point x="350" y="401"/>
      <point x="423" y="505"/>
      <point x="511" y="566" type="curve" smooth="yes"/>
      <point x="544" y="588"/>
      <point x="574" y="597"/>
      <point x="601" y="600" type="curve" smooth="yes"/>
      <point x="626" y="602"/>
      <point x="658" y="595"/>
      <point x="635" y="608" type="curve" smooth="yes"/>
      <point x="615" y="620"/>
      <point x="595" y="625"/>
      <point x="574" y="625" type="curve" smooth="yes"/>
      <point x="519" y="625"/>
      <point x="461" y="600"/>
      <point x="415" y="557" type="curve" smooth="yes"/>
      <point x="337" y="484"/>
      <point x="285" y="400"/>
      <point x="260" y="301" type="curve" smooth="yes"/>
      <point x="246" y="245"/>
      <point x="240" y="172"/>
      <point x="270" y="96" type="curve" smooth="yes"/>
      <point x="296" y="30"/>
      <point x="356" y="-18"/>
    </contour>
    <contour>
      <point x="429" y="-292" type="curve" smooth="yes"/>
      <point x="524" y="-277"/>
      <point x="624" y="-211"/>
      <point x="624" y="-142" type="curve" smooth="yes"/>
      <point x="624" y="-63"/>
      <point x="547" y="-31"/>
      <point x="442" y="-31" type="curve" smooth="yes"/>
      <point x="354" y="-31"/>
      <point x="278" y="-49"/>
      <point x="213" y="-86" type="curve" smooth="yes"/>
      <point x="167" y="-112"/>
      <point x="111" y="-136"/>
      <point x="40" y="-226" type="curve" smooth="yes"/>
      <point x="0" y="-277"/>
      <point x="24" y="-290"/>
      <point x="71" y="-247" type="curve" smooth="yes"/>
      <point x="131" y="-193"/>
      <point x="184" y="-149"/>
      <point x="242" y="-118" type="curve" smooth="yes"/>
      <point x="302" y="-86"/>
      <point x="367" y="-61"/>
      <point x="450" y="-60" type="curve" smooth="yes"/>
      <point x="533" y="-59"/>
      <point x="596" y="-73"/>
      <point x="596" y="-134" type="curve" smooth="yes"/>
      <point x="596" y="-192"/>
      <point x="515" y="-259"/>
      <point x="432" y="-273" type="curve" smooth="yes"/>
      <point x="421" y="-274"/>
      <point x="416" y="-278"/>
      <point x="416" y="-285" type="curve" smooth="yes"/>
      <point x="416" y="-291"/>
      <point x="420" y="-293"/>
    </contour>
  </outline>
</glyph>
<glyph name="wa.base.001" format="2">
  <advance width="751"/>
  <anchor x="359" y="8" name="haa"/>
  <anchor x="354" y="-38" name="haa.acute"/>
  <anchor x="667" y="696" name="hat"/>
  <anchor x="540" y="571" name="he.acute"/>
  <anchor x="375" y="-199" name="hee"/>
  <anchor x="279" y="-112" name="hi"/>
  <anchor x="627" y="582" name="ho.ring"/>
  <anchor x="780" y="275" name="hu"/>
  <anchor x="360" y="-5" name="hwa"/>
  <anchor x="550" y="510" name="neck"/>
  <anchor x="675" y="512" name="top"/>
  <outline>
    <contour>
      <point x="522" y="-13"/>
      <point x="585" y="27"/>
      <point x="638" y="81" type="curve" smooth="yes"/>
      <point x="686" y="131"/>
      <point x="725" y="193"/>
      <point x="747" y="245" type="curve" smooth="yes"/>
      <point x="770" y="294"/>
      <point x="781" y="340"/>
      <point x="781" y="383" type="curve" smooth="yes"/>
      <point x="781" y="475"/>
      <point x="744" y="523"/>
      <point x="670" y="523" type="curve" smooth="yes"/>
      <point x="628" y="523"/>
      <point x="581" y="502"/>
      <point x="536" y="468" type="curve"/>
      <point x="520" y="511"/>
      <point x="486" y="533"/>
      <point x="436" y="533" type="curve" smooth="yes"/>
      <point x="336" y="533"/>
      <point x="209" y="418"/>
      <point x="148" y="276" type="curve" smooth="yes"/>
      <point x="125" y="227"/>
      <point x="114" y="181"/>
      <point x="114" y="139" type="curve" smooth="yes"/>
      <point x="114" y="45"/>
      <point x="151" y="-3"/>
      <point x="225" y="-3" type="curve" smooth="yes"/>
      <point x="257" y="-3"/>
      <point x="323" y="16"/>
      <point x="365" y="40" type="curve"/>
      <point x="383" y="5"/>
      <point x="414" y="-13"/>
      <point x="459" y="-13" type="curve" smooth="yes"/>
    </contour>
    <contour>
      <point x="253" y="29" type="curve" smooth="yes"/>
      <point x="207" y="29"/>
      <point x="170" y="49"/>
      <point x="163" y="100" type="curve" smooth="yes"/>
      <point x="156" y="152"/>
      <point x="174" y="207"/>
      <point x="210" y="280" type="curve" smooth="yes"/>
      <point x="269" y="407"/>
      <point x="382" y="492"/>
      <point x="448" y="492" type="curve" smooth="yes"/>
      <point x="477" y="492"/>
      <point x="498" y="474"/>
      <point x="506" y="443" type="curve"/>
      <point x="456" y="397"/>
      <point x="411" y="335"/>
      <point x="382" y="266" type="curve" smooth="yes"/>
      <point x="359" y="217"/>
      <point x="348" y="171"/>
      <point x="348" y="129" type="curve" smooth="yes"/>
      <point x="348" y="104"/>
      <point x="351" y="82"/>
      <point x="356" y="63" type="curve"/>
      <point x="329" y="47"/>
      <point x="272" y="29"/>
    </contour>
    <contour>
      <point x="682" y="196"/>
      <point x="642" y="130"/>
      <point x="602" y="91" type="curve" smooth="yes"/>
      <point x="557" y="45"/>
      <point x="503" y="18"/>
      <point x="462" y="20" type="curve" smooth="yes"/>
      <point x="429" y="22"/>
      <point x="403" y="43"/>
      <point x="397" y="90" type="curve" smooth="yes"/>
      <point x="390" y="142"/>
      <point x="408" y="197"/>
      <point x="444" y="270" type="curve" smooth="yes"/>
      <point x="503" y="397"/>
      <point x="616" y="482"/>
      <point x="682" y="482" type="curve" smooth="yes"/>
      <point x="720" y="482"/>
      <point x="744" y="451"/>
      <point x="744" y="401" type="curve" smooth="yes"/>
      <point x="744" y="350"/>
      <point x="733" y="300"/>
      <point x="707" y="248" type="curve" smooth="yes"/>
    </contour>
  </outline>
</glyph>
<glyph name="wa.base.cap" format="2">
  <advance width="970"/>
  <anchor x="475" y="-8" name="haa"/>
  <anchor x="495" y="-78" name="haa.acute"/>
  <anchor x="704" y="834" name="hat"/>
  <anchor x="634" y="832" name="he.acute"/>
  <anchor x="500" y="-246" name="hee"/>
  <anchor x="416" y="-151" name="hi"/>
  <anchor x="669" y="828" name="ho.ring"/>
  <anchor x="1018" y="56" name="hu"/>
  <anchor x="481" y="-39" name="hwa"/>
  <anchor x="653" y="655" name="neck"/>
  <outline>
    <contour>
      <point x="248" y="-63" type="curve" smooth="yes"/>
      <point x="330" y="-63"/>
      <point x="378" y="-34"/>
      <point x="451" y="24" type="curve"/>
      <point x="486" y="-27"/>
      <point x="544" y="-63"/>
      <point x="650" y="-63" type="curve" smooth="yes"/>
      <point x="759" y="-63"/>
      <point x="861" y="-11"/>
      <point x="954" y="92" type="curve" smooth="yes"/>
      <point x="1092" y="241"/>
      <point x="1136" y="417"/>
      <point x="1096" y="572" type="curve" smooth="yes"/>
      <point x="1078" y="646"/>
      <point x="1031" y="704"/>
      <point x="956" y="746" type="curve" smooth="yes"/>
      <point x="909" y="773"/>
      <point x="843" y="786"/>
      <point x="758" y="786" type="curve" smooth="yes"/>
      <point x="731" y="786"/>
      <point x="695" y="783"/>
      <point x="652" y="776" type="curve" smooth="yes"/>
      <point x="632" y="773"/>
      <point x="612" y="771"/>
      <point x="595" y="761" type="curve" smooth="yes"/>
      <point x="590" y="758" type="line" smooth="yes"/>
      <point x="585" y="755"/>
      <point x="574" y="749"/>
      <point x="578" y="745" type="curve" smooth="yes"/>
      <point x="583" y="741" type="line"/>
      <point x="609" y="746" type="line" smooth="yes"/>
      <point x="624" y="749"/>
      <point x="639" y="752"/>
      <point x="656" y="754" type="curve" smooth="yes"/>
      <point x="679" y="757"/>
      <point x="704" y="759"/>
      <point x="729" y="759" type="curve" smooth="yes"/>
      <point x="754" y="759"/>
      <point x="780" y="756"/>
      <point x="806" y="750" type="curve" smooth="yes"/>
      <point x="891" y="733"/>
      <point x="956" y="690"/>
      <point x="1002" y="621" type="curve" smooth="yes"/>
      <point x="1039" y="566"/>
      <point x="1057" y="504"/>
      <point x="1057" y="433" type="curve" smooth="yes"/>
      <point x="1057" y="330"/>
      <point x="1023" y="233"/>
      <point x="954" y="142" type="curve" smooth="yes"/>
      <point x="923" y="101"/>
      <point x="886" y="65"/>
      <point x="843" y="32" type="curve" smooth="yes"/>
      <point x="777" y="-18"/>
      <point x="711" y="-43"/>
      <point x="644" y="-43" type="curve" smooth="yes"/>
      <point x="612" y="-43"/>
      <point x="553" y="-32"/>
      <point x="526" y="-10" type="curve" smooth="yes"/>
      <point x="507" y="5"/>
      <point x="493" y="25"/>
      <point x="482" y="49" type="curve"/>
      <point x="592" y="344" type="line" smooth="yes"/>
      <point x="612" y="397"/>
      <point x="645" y="485"/>
      <point x="651" y="561" type="curve" smooth="yes"/>
      <point x="668" y="744"/>
      <point x="431" y="804"/>
      <point x="250" y="776" type="curve" smooth="yes"/>
      <point x="164" y="761"/>
      <point x="99" y="721"/>
      <point x="56" y="656" type="curve" smooth="yes"/>
      <point x="32" y="620"/>
      <point x="20" y="585"/>
      <point x="20" y="550" type="curve" smooth="yes"/>
      <point x="20" y="515"/>
      <point x="28" y="480"/>
      <point x="45" y="447" type="curve" smooth="yes"/>
      <point x="58" y="422"/>
      <point x="74" y="430"/>
      <point x="69" y="453" type="curve" smooth="yes"/>
      <point x="62" y="482"/>
      <point x="58" y="510"/>
      <point x="58" y="536" type="curve" smooth="yes"/>
      <point x="58" y="580"/>
      <point x="69" y="620"/>
      <point x="90" y="655" type="curve" smooth="yes"/>
      <point x="123" y="711"/>
      <point x="177" y="744"/>
      <point x="254" y="754" type="curve" smooth="yes"/>
      <point x="277" y="757"/>
      <point x="302" y="759"/>
      <point x="327" y="759" type="curve" smooth="yes"/>
      <point x="390" y="759"/>
      <point x="527" y="731"/>
      <point x="574" y="670" type="curve" smooth="yes"/>
      <point x="633" y="594"/>
      <point x="588" y="491"/>
      <point x="569" y="440" type="curve" smooth="yes"/>
      <point x="430" y="64" type="line" smooth="yes"/>
      <point x="427" y="56"/>
      <point x="412" y="35"/>
      <point x="368" y="0" type="curve" smooth="yes"/>
      <point x="328" y="-32"/>
      <point x="275" y="-43"/>
      <point x="242" y="-43" type="curve" smooth="yes"/>
      <point x="210" y="-43"/>
      <point x="181" y="-32"/>
      <point x="154" y="-10" type="curve" smooth="yes"/>
      <point x="111" y="26"/>
      <point x="90" y="83"/>
      <point x="90" y="160" type="curve" smooth="yes"/>
      <point x="90" y="190"/>
      <point x="96" y="225"/>
      <point x="108" y="266" type="curve" smooth="yes"/>
      <point x="148" y="406"/>
      <point x="229" y="522"/>
      <point x="328" y="590" type="curve" smooth="yes"/>
      <point x="365" y="615"/>
      <point x="399" y="628"/>
      <point x="429" y="628" type="curve" smooth="yes"/>
      <point x="470" y="628"/>
      <point x="493" y="623"/>
      <point x="467" y="638" type="curve" smooth="yes"/>
      <point x="445" y="651"/>
      <point x="422" y="657"/>
      <point x="399" y="657" type="curve" smooth="yes"/>
      <point x="396" y="657"/>
      <point x="392" y="657"/>
      <point x="388" y="656" type="curve" smooth="yes"/>
      <point x="326" y="651"/>
      <point x="270" y="626"/>
      <point x="221" y="580" type="curve" smooth="yes"/>
      <point x="133" y="499"/>
      <point x="75" y="405"/>
      <point x="47" y="294" type="curve" smooth="yes"/>
      <point x="38" y="260"/>
      <point x="34" y="223"/>
      <point x="34" y="184" type="curve" smooth="yes"/>
      <point x="34" y="145"/>
      <point x="42" y="105"/>
      <point x="58" y="64" type="curve" smooth="yes"/>
      <point x="87" y="-9"/>
      <point x="155" y="-63"/>
    </contour>
  </outline>
</glyph>
<glyph name="wa.base" format="2">
  <advance width="743"/>
  <anchor x="359" y="8" name="haa"/>
  <anchor x="354" y="-38" name="haa.acute"/>
  <anchor x="667" y="696" name="hat"/>
  <anchor x="570" y="581" name="he.acute"/>
  <anchor x="375" y="-199" name="hee"/>
  <anchor x="279" y="-112" name="hi"/>
  <anchor x="627" y="582" name="ho.ring"/>
  <anchor x="763" y="275" name="hu"/>
  <anchor x="360" y="-5" name="hwa"/>
  <anchor x="550" y="510" name="neck"/>
  <anchor x="675" y="512" name="top"/>
  <outline>
    <contour>
      <point x="459" y="-13" type="curve" smooth="yes"/>
      <point x="499" y="-13"/>
      <point x="543" y="4"/>
      <point x="590" y="40" type="curve"/>
      <point x="613" y="13"/>
      <point x="646" y="0"/>
      <point x="688" y="0" type="curve" smooth="yes"/>
      <point x="747" y="0"/>
      <point x="788" y="41"/>
      <point x="826" y="95" type="curve" smooth="yes"/>
      <point x="868" y="155"/>
      <point x="900" y="220"/>
      <point x="927" y="275" type="curve" smooth="yes"/>
      <point x="933" y="287"/>
      <point x="917" y="304"/>
      <point x="907" y="286" type="curve" smooth="yes"/>
      <point x="899" y="270"/>
      <point x="891" y="253"/>
      <point x="863" y="203" type="curve" smooth="yes"/>
      <point x="822" y="126"/>
      <point x="799" y="99"/>
      <point x="769" y="67" type="curve" smooth="yes"/>
      <point x="744" y="40"/>
      <point x="719" y="25"/>
      <point x="691" y="25" type="curve" smooth="yes"/>
      <point x="656" y="25"/>
      <point x="632" y="38"/>
      <point x="619" y="64" type="curve"/>
      <point x="676" y="117"/>
      <point x="719" y="178"/>
      <point x="747" y="245" type="curve" smooth="yes"/>
      <point x="770" y="294"/>
      <point x="781" y="340"/>
      <point x="781" y="383" type="curve" smooth="yes"/>
      <point x="781" y="475"/>
      <point x="744" y="523"/>
      <point x="670" y="523" type="curve" smooth="yes"/>
      <point x="628" y="523"/>
      <point x="581" y="502"/>
      <point x="536" y="468" type="curve"/>
      <point x="520" y="511"/>
      <point x="486" y="533"/>
      <point x="436" y="533" type="curve" smooth="yes"/>
      <point x="336" y="533"/>
      <point x="209" y="418"/>
      <point x="148" y="276" type="curve" smooth="yes"/>
      <point x="125" y="227"/>
      <point x="114" y="181"/>
      <point x="114" y="139" type="curve" smooth="yes"/>
      <point x="114" y="45"/>
      <point x="151" y="-3"/>
      <point x="225" y="-3" type="curve" smooth="yes"/>
      <point x="257" y="-3"/>
      <point x="323" y="16"/>
      <point x="365" y="40" type="curve"/>
      <point x="383" y="5"/>
      <point x="414" y="-13"/>
    </contour>
    <contour>
      <point x="253" y="29" type="curve" smooth="yes"/>
      <point x="207" y="29"/>
      <point x="170" y="49"/>
      <point x="163" y="100" type="curve" smooth="yes"/>
      <point x="156" y="152"/>
      <point x="174" y="207"/>
      <point x="210" y="280" type="curve" smooth="yes"/>
      <point x="269" y="407"/>
      <point x="382" y="492"/>
      <point x="448" y="492" type="curve" smooth="yes"/>
      <point x="477" y="492"/>
      <point x="498" y="474"/>
      <point x="506" y="443" type="curve"/>
      <point x="456" y="397"/>
      <point x="411" y="335"/>
      <point x="382" y="266" type="curve" smooth="yes"/>
      <point x="359" y="217"/>
      <point x="348" y="171"/>
      <point x="348" y="129" type="curve" smooth="yes"/>
      <point x="348" y="104"/>
      <point x="351" y="82"/>
      <point x="356" y="63" type="curve"/>
      <point x="329" y="47"/>
      <point x="272" y="29"/>
    </contour>
    <contour>
      <point x="487" y="19" type="curve" smooth="yes"/>
      <point x="441" y="19"/>
      <point x="404" y="39"/>
      <point x="397" y="90" type="curve" smooth="yes"/>
      <point x="390" y="142"/>
      <point x="408" y="197"/>
      <point x="444" y="270" type="curve" smooth="yes"/>
      <point x="503" y="397"/>
      <point x="616" y="482"/>
      <point x="682" y="482" type="curve" smooth="yes"/>
      <point x="720" y="482"/>
      <point x="744" y="451"/>
      <point x="744" y="401" type="curve" smooth="yes"/>
      <point x="744" y="350"/>
      <point x="733" y="300"/>
      <point x="707" y="248" type="curve" smooth="yes"/>
      <point x="685" y="201"/>
      <point x="644" y="124"/>
      <point x="614" y="93" type="curve"/>
      <point x="614" y="98" type="line" smooth="yes"/>
      <point x="614" y="118"/>
      <point x="606" y="129"/>
      <point x="590" y="129" type="curve" smooth="yes"/>
      <point x="569" y="129"/>
      <point x="543" y="96"/>
      <point x="543" y="73" type="curve" smooth="yes"/>
      <point x="543" y="60"/>
      <point x="552" y="54"/>
      <point x="564" y="53" type="curve"/>
      <point x="535" y="31"/>
      <point x="510" y="19"/>
    </contour>
  </outline>
</glyph>
<glyph name="ya.base.cap" format="2">
  <advance width="976"/>
  <anchor x="417" y="-24" name="haa.acute"/>
  <anchor x="972" y="524" name="he"/>
  <anchor x="663" y="567" name="he.left"/>
  <anchor x="669" y="38" name="hee"/>
  <anchor x="620" y="145" name="hi"/>
  <anchor x="638" y="93" name="hu"/>
  <anchor x="649" y="117" name="ye"/>
  <outline>
    <contour>
      <point x="187" y="-39" type="curve" smooth="yes"/>
      <point x="278" y="-39"/>
      <point x="361" y="-4"/>
      <point x="436" y="67" type="curve" smooth="yes"/>
      <point x="487" y="117"/>
      <point x="537" y="178"/>
      <point x="586" y="249" type="curve"/>
      <point x="598" y="248"/>
      <point x="610" y="248"/>
      <point x="622" y="248" type="curve" smooth="yes"/>
      <point x="678" y="248"/>
      <point x="741" y="256"/>
      <point x="810" y="273" type="curve" smooth="yes"/>
      <point x="890" y="293"/>
      <point x="978" y="340"/>
      <point x="1038" y="403" type="curve" smooth="yes"/>
      <point x="1090" y="456"/>
      <point x="1116" y="506"/>
      <point x="1116" y="553" type="curve" smooth="yes"/>
      <point x="1116" y="612"/>
      <point x="1081" y="663"/>
      <point x="1010" y="705" type="curve" smooth="yes"/>
      <point x="975" y="726"/>
      <point x="937" y="742"/>
      <point x="894" y="753" type="curve"/>
      <point x="928" y="787"/>
      <point x="973" y="810"/>
      <point x="952" y="810" type="curve"/>
      <point x="945" y="817"/>
      <point x="901" y="799"/>
      <point x="854" y="763" type="curve"/>
      <point x="697" y="796"/>
      <point x="483" y="786"/>
      <point x="292" y="710" type="curve" smooth="yes"/>
      <point x="217" y="679"/>
      <point x="160" y="645"/>
      <point x="119" y="583" type="curve" smooth="yes"/>
      <point x="98" y="552"/>
      <point x="88" y="517"/>
      <point x="88" y="478" type="curve" smooth="yes"/>
      <point x="88" y="394"/>
      <point x="151" y="335"/>
      <point x="242" y="335" type="curve" smooth="yes"/>
      <point x="322" y="335"/>
      <point x="401" y="388"/>
      <point x="402" y="475" type="curve" smooth="yes"/>
      <point x="401" y="495"/>
      <point x="385" y="485"/>
      <point x="388" y="476" type="curve"/>
      <point x="364" y="408"/>
      <point x="300" y="355"/>
      <point x="240" y="355" type="curve" smooth="yes"/>
      <point x="209" y="355"/>
      <point x="184" y="367"/>
      <point x="165" y="390" type="curve" smooth="yes"/>
      <point x="147" y="412"/>
      <point x="138" y="436"/>
      <point x="138" y="461" type="curve" smooth="yes"/>
      <point x="138" y="502"/>
      <point x="155" y="542"/>
      <point x="188" y="580" type="curve" smooth="yes"/>
      <point x="239" y="640"/>
      <point x="319" y="678"/>
      <point x="391" y="703" type="curve" smooth="yes"/>
      <point x="427" y="715"/>
      <point x="469" y="726"/>
      <point x="518" y="735" type="curve" smooth="yes"/>
      <point x="567" y="744"/>
      <point x="618" y="748"/>
      <point x="673" y="748" type="curve" smooth="yes"/>
      <point x="728" y="748"/>
      <point x="779" y="745"/>
      <point x="827" y="738" type="curve"/>
      <point x="818" y="729"/>
      <point x="807" y="715"/>
      <point x="792" y="700" type="curve" smooth="yes"/>
      <point x="774" y="682" type="line" smooth="yes"/>
      <point x="693" y="601"/>
      <point x="619" y="463"/>
      <point x="570" y="366" type="curve" smooth="yes"/>
      <point x="506" y="236"/>
      <point x="448" y="146"/>
      <point x="397" y="96" type="curve" smooth="yes"/>
      <point x="325" y="27"/>
      <point x="252" y="-8"/>
      <point x="177" y="-8" type="curve" smooth="yes"/>
      <point x="127" y="-8"/>
      <point x="97" y="10"/>
      <point x="86" y="46" type="curve" smooth="yes"/>
      <point x="83" y="53"/>
      <point x="82" y="61"/>
      <point x="82" y="68" type="curve" smooth="yes"/>
      <point x="82" y="156"/>
      <point x="209" y="98"/>
      <point x="244" y="133" type="curve"/>
      <point x="247" y="138"/>
      <point x="243" y="142"/>
      <point x="232" y="146" type="curve" smooth="yes"/>
      <point x="201" y="156"/>
      <point x="172" y="161"/>
      <point x="144" y="161" type="curve" smooth="yes"/>
      <point x="101" y="161"/>
      <point x="67" y="147"/>
      <point x="43" y="120" type="curve" smooth="yes"/>
      <point x="28" y="103"/>
      <point x="20" y="87"/>
      <point x="20" y="72" type="curve" smooth="yes"/>
      <point x="20" y="57"/>
      <point x="22" y="43"/>
      <point x="27" y="32" type="curve" smooth="yes"/>
      <point x="47" y="-15"/>
      <point x="100" y="-39"/>
    </contour>
    <contour>
      <point x="600" y="270" type="line"/>
      <point x="627" y="312"/>
      <point x="671" y="386"/>
      <point x="730" y="492" type="curve" smooth="yes"/>
      <point x="789" y="598"/>
      <point x="838" y="677"/>
      <point x="875" y="729" type="curve"/>
      <point x="993" y="701"/>
      <point x="1052" y="648"/>
      <point x="1052" y="570" type="curve" smooth="yes"/>
      <point x="1052" y="501"/>
      <point x="1009" y="435"/>
      <point x="924" y="370" type="curve" smooth="yes"/>
      <point x="836" y="305"/>
      <point x="711" y="270"/>
      <point x="614" y="270" type="curve" smooth="yes"/>
    </contour>
  </outline>
</glyph>
<glyph name="za.base.cap" format="2">
  <advance width="1424"/>
  <anchor x="1198" y="-59" name="haa"/>
  <anchor x="1071" y="824" name="he.acute"/>
  <anchor x="1269" y="-219" name="hee"/>
  <anchor x="1190" y="-120" name="hi"/>
  <anchor x="694" y="-107" name="ho"/>
  <anchor x="1411" y="464" name="hu"/>
  <anchor x="1166" y="-69" name="hwa"/>
  <anchor x="1374" y="823" name="zha.cap"/>
  <outline>
    <contour>
      <point x="356" y="-171" type="curve" smooth="yes"/>
      <point x="440" y="-171"/>
      <point x="520" y="-150"/>
      <point x="596" y="-108" type="curve" smooth="yes"/>
      <point x="653" y="-76"/>
      <point x="702" y="-36"/>
      <point x="745" y="11" type="curve" smooth="yes"/>
      <point x="832" y="107"/>
      <point x="896" y="216"/>
      <point x="937" y="337" type="curve"/>
      <point x="1134" y="328"/>
      <point x="1247" y="324"/>
      <point x="1276" y="324" type="curve"/>
      <point x="1274" y="319"/>
      <point x="1263" y="292"/>
      <point x="1243" y="231" type="curve" smooth="yes"/>
      <point x="1234" y="203"/>
      <point x="1214" y="140"/>
      <point x="1210" y="105" type="curve" smooth="yes"/>
      <point x="1205" y="58"/>
      <point x="1201" y="25"/>
      <point x="1215" y="-3" type="curve" smooth="yes"/>
      <point x="1227" y="-28"/>
      <point x="1248" y="-41"/>
      <point x="1279" y="-41" type="curve" smooth="yes"/>
      <point x="1306" y="-41"/>
      <point x="1334" y="-28"/>
      <point x="1361" y="-2" type="curve" smooth="yes"/>
      <point x="1402" y="39"/>
      <point x="1429" y="77"/>
      <point x="1478" y="182" type="curve" smooth="yes"/>
      <point x="1489" y="206"/>
      <point x="1474" y="212"/>
      <point x="1463" y="189" type="curve" smooth="yes"/>
      <point x="1418" y="96"/>
      <point x="1376" y="36"/>
      <point x="1338" y="8" type="curve" smooth="yes"/>
      <point x="1299" y="-20"/>
      <point x="1268" y="2"/>
      <point x="1268" y="59" type="curve" smooth="yes"/>
      <point x="1268" y="100"/>
      <point x="1284" y="173"/>
      <point x="1318" y="276" type="curve" smooth="yes"/>
      <point x="1334" y="324" type="line"/>
      <point x="1377" y="327"/>
      <point x="1409" y="336"/>
      <point x="1431" y="351" type="curve" smooth="yes"/>
      <point x="1462" y="372"/>
      <point x="1424" y="366"/>
      <point x="1343" y="356" type="curve"/>
      <point x="1391" y="497"/>
      <point x="1465" y="637"/>
      <point x="1507" y="698" type="curve" smooth="yes"/>
      <point x="1533" y="737"/>
      <point x="1564" y="754"/>
      <point x="1564" y="760" type="curve" smooth="yes"/>
      <point x="1564" y="766"/>
      <point x="1542" y="763"/>
      <point x="1509" y="752" type="curve" smooth="yes"/>
      <point x="1487" y="744"/>
      <point x="1464" y="722"/>
      <point x="1439" y="685" type="curve" smooth="yes"/>
      <point x="1390" y="611"/>
      <point x="1312" y="432"/>
      <point x="1285" y="355" type="curve"/>
      <point x="1267" y="355"/>
      <point x="1219" y="358"/>
      <point x="1140" y="364" type="curve" smooth="yes"/>
      <point x="1061" y="369"/>
      <point x="996" y="372"/>
      <point x="946" y="372" type="curve"/>
      <point x="999" y="513" type="line" smooth="yes"/>
      <point x="1032" y="602"/>
      <point x="1057" y="663"/>
      <point x="1075" y="698" type="curve"/>
      <point x="1123" y="698"/>
      <point x="1193" y="730"/>
      <point x="1193" y="772" type="curve" smooth="yes"/>
      <point x="1193" y="793"/>
      <point x="1181" y="803"/>
      <point x="1156" y="803" type="curve" smooth="yes"/>
      <point x="1138" y="803"/>
      <point x="1118" y="798"/>
      <point x="1093" y="767" type="curve" smooth="yes"/>
      <point x="1078" y="748"/>
      <point x="1066" y="733"/>
      <point x="1059" y="720" type="curve"/>
      <point x="1007" y="715"/>
      <point x="934" y="713"/>
      <point x="868" y="707" type="curve" smooth="yes"/>
      <point x="839" y="704"/>
      <point x="806" y="700"/>
      <point x="768" y="695" type="curve" smooth="yes"/>
      <point x="691" y="684"/>
      <point x="640" y="663"/>
      <point x="584" y="631" type="curve" smooth="yes"/>
      <point x="528" y="598"/>
      <point x="489" y="539"/>
      <point x="477" y="488" type="curve" smooth="yes"/>
      <point x="464" y="436"/>
      <point x="462" y="399"/>
      <point x="483" y="356" type="curve" smooth="yes"/>
      <point x="500" y="319"/>
      <point x="526" y="293"/>
      <point x="561" y="278" type="curve" smooth="yes"/>
      <point x="580" y="270"/>
      <point x="598" y="266"/>
      <point x="617" y="266" type="curve" smooth="yes"/>
      <point x="636" y="266"/>
      <point x="654" y="269"/>
      <point x="673" y="276" type="curve" smooth="yes"/>
      <point x="712" y="290"/>
      <point x="742" y="318"/>
      <point x="765" y="359" type="curve" smooth="yes"/>
      <point x="778" y="382"/>
      <point x="785" y="404"/>
      <point x="785" y="424" type="curve" smooth="yes"/>
      <point x="785" y="444"/>
      <point x="781" y="463"/>
      <point x="773" y="480" type="curve" smooth="yes"/>
      <point x="770" y="486"/>
      <point x="766" y="489"/>
      <point x="761" y="488" type="curve" smooth="yes"/>
      <point x="747" y="485"/>
      <point x="764" y="472"/>
      <point x="764" y="449" type="curve" smooth="yes"/>
      <point x="764" y="436"/>
      <point x="758" y="415"/>
      <point x="747" y="384" type="curve" smooth="yes"/>
      <point x="723" y="319"/>
      <point x="683" y="286"/>
      <point x="626" y="286" type="curve" smooth="yes"/>
      <point x="569" y="286"/>
      <point x="531" y="342"/>
      <point x="531" y="390" type="curve" smooth="yes"/>
      <point x="531" y="414"/>
      <point x="534" y="437"/>
      <point x="541" y="458" type="curve" smooth="yes"/>
      <point x="557" y="510"/>
      <point x="584" y="554"/>
      <point x="622" y="590" type="curve" smooth="yes"/>
      <point x="654" y="619"/>
      <point x="707" y="643"/>
      <point x="746" y="656" type="curve" smooth="yes"/>
      <point x="765" y="662"/>
      <point x="790" y="667"/>
      <point x="819" y="672" type="curve" smooth="yes"/>
      <point x="878" y="681"/>
      <point x="907" y="684"/>
      <point x="971" y="689" type="curve" smooth="yes"/>
      <point x="1003" y="692"/>
      <point x="1028" y="694"/>
      <point x="1045" y="696" type="curve"/>
      <point x="990" y="587"/>
      <point x="942" y="479"/>
      <point x="899" y="372" type="curve"/>
      <point x="860" y="372" type="line"/>
      <point x="836" y="369"/>
      <point x="794" y="345"/>
      <point x="794" y="322" type="curve"/>
      <point x="797" y="302"/>
      <point x="837" y="339"/>
      <point x="885" y="339" type="curve"/>
      <point x="793" y="97"/>
      <point x="634" y="-49"/>
      <point x="408" y="-100" type="curve" smooth="yes"/>
      <point x="384" y="-105"/>
      <point x="358" y="-108"/>
      <point x="331" y="-108" type="curve" smooth="yes"/>
      <point x="268" y="-108"/>
      <point x="214" y="-96"/>
      <point x="167" y="-73" type="curve" smooth="yes"/>
      <point x="90" y="-34"/>
      <point x="51" y="26"/>
      <point x="51" y="106" type="curve" smooth="yes"/>
      <point x="51" y="157"/>
      <point x="65" y="202"/>
      <point x="93" y="241" type="curve" smooth="yes"/>
      <point x="114" y="270"/>
      <point x="135" y="289"/>
      <point x="155" y="298" type="curve" smooth="yes"/>
      <point x="171" y="304"/>
      <point x="166" y="318"/>
      <point x="153" y="312" type="curve"/>
      <point x="117" y="311"/>
      <point x="47" y="246"/>
      <point x="31" y="185" type="curve" smooth="yes"/>
      <point x="0" y="65"/>
      <point x="38" y="-39"/>
      <point x="115" y="-97" type="curve" smooth="yes"/>
      <point x="192" y="-155"/>
      <point x="285" y="-171"/>
    </contour>
    <contour>
      <point x="1093" y="723" type="curve"/>
      <point x="1118" y="756"/>
      <point x="1135" y="772"/>
      <point x="1143" y="772" type="curve" smooth="yes"/>
      <point x="1144" y="772"/>
      <point x="1145" y="772"/>
      <point x="1146" y="771" type="curve"/>
      <point x="1153" y="770"/>
      <point x="1156" y="765"/>
      <point x="1157" y="758" type="curve" smooth="yes"/>
      <point x="1158" y="741"/>
      <point x="1136" y="730"/>
    </contour>
  </outline>
</glyph>
